<svg width="24" height="24" viewBox="0 0 24 24" fill="none" xmlns="http://www.w3.org/2000/svg">
<path d="M11.1159 12.7655C11.0834 13.0282 11.0386 13.3867 10.8238 13.7916C10.7187 13.991 10.5874 14.1733 10.4313 14.3371C9.87343 14.8965 9.1703 15.201 8.44709 15.201C6.46907 15.201 5.56814 13.6 5.56814 12.1119C5.56814 9.99011 7.09802 9.02428 8.51972 9.02428C9.0065 9.02428 9.42219 9.16182 9.76371 9.35498C10.3958 9.7135 10.8393 10.3332 11.0216 11.0363L11.0262 11.0548L9.68026 11.0425L9.569 10.854C9.54118 10.806 9.27848 10.3965 8.51972 10.3965C7.50289 10.3965 7.04857 11.2588 7.04857 12.1119C7.04857 12.9046 7.41636 13.8287 8.45327 13.8287C8.76852 13.8287 9.44692 13.7406 9.64627 13.0081L8.05303 13.0221V11.6683H11.1128L11.136 12.0284C11.153 12.2757 11.1468 12.5245 11.1159 12.7655Z" fill="currentColor"/>
<path d="M13.3457 9.07856H11.8653V15.0095H13.3457V9.07856Z" fill="currentColor"/>
<path d="M15.8049 10.477V11.3439H18.0719V12.71H15.8049V15.0357H14.3229V9.10472H18.282V10.477H15.8049Z" fill="currentColor"/>
<path d="M22.0029 4.03296V19.9666H1.99707V4.03296H22.0029ZM4.00293 17.9607H19.9971V6.03882H4.00293V17.9607Z" fill="currentColor"/>
</svg>
