<svg width="24" height="24" viewBox="0 0 24 24" fill="none" xmlns="http://www.w3.org/2000/svg">
<path d="M17.232 15.0747C19.7138 15.0747 21.7849 17.0423 21.7849 19.5414V20.5439H8.41203V19.5414C8.41203 17.0445 10.4811 15.0748 12.965 15.0747H17.232ZM12.965 17.0799C11.9044 17.08 11.0245 17.6904 10.6292 18.5388H19.5687C19.1734 17.6899 18.2922 17.0799 17.232 17.0799H12.965ZM10.3433 13.0167L6.35242 13.0774H6.33784C5.28044 13.0774 4.40202 13.684 4.00497 14.5284L7.78384 14.5069L7.79551 16.512L1.78491 16.5473V15.5388C1.78491 13.0468 3.84581 11.0799 6.32325 11.0722L10.3131 11.0115L10.3433 13.0167ZM16.5455 10.9635C16.5452 10.1913 15.9228 9.56537 15.1558 9.56537C14.3891 9.56563 13.7674 10.1915 13.7672 10.9635C13.7672 11.7357 14.3889 12.3624 15.1558 12.3626C15.923 12.3626 16.5455 11.7359 16.5455 10.9635ZM10.07 6.94727C10.0698 6.17515 9.44828 5.54927 8.6814 5.54913C7.91439 5.54913 7.29199 6.17506 7.29179 6.94727C7.29179 7.71966 7.91427 8.3464 8.6814 8.3464C9.44841 8.34626 10.07 7.71957 10.07 6.94727ZM18.537 10.9635C18.537 12.8433 17.0229 14.3678 15.1558 14.3678C13.289 14.3676 11.7757 12.8432 11.7757 10.9635C11.7759 9.08406 13.2892 7.56045 15.1558 7.56019C17.0227 7.56019 18.5368 9.0839 18.537 10.9635ZM12.0616 6.94727C12.0616 8.827 10.5483 10.3514 8.6814 10.3516C6.81437 10.3516 5.30025 8.82709 5.30025 6.94727C5.30045 5.06763 6.8145 3.54395 8.6814 3.54395C10.5482 3.54408 12.0614 5.06772 12.0616 6.94727Z" fill="currentColor"/>
</svg>
