<svg width="24" height="24" viewBox="0 0 24 24" fill="none" xmlns="http://www.w3.org/2000/svg">
<path d="M12.3936 22.3447L12 22.5137L11.6055 22.3447L12 21.4258L12.3936 22.3447ZM19.999 12.4307C19.999 15.8471 18.0024 18.3486 16.1504 19.9355C15.2153 20.7368 14.284 21.3342 13.5889 21.7314C13.2403 21.9306 12.9483 22.0817 12.7402 22.1836C12.6363 22.2345 12.553 22.2729 12.4941 22.2998C12.4647 22.3133 12.4407 22.3236 12.4238 22.3311C12.4156 22.3347 12.4094 22.3386 12.4043 22.3408C12.4018 22.3419 12.3975 22.3428 12.3975 22.3428L12.3936 22.3447L12 21.4258L11.6055 22.3447L11.6016 22.3428C11.6016 22.3428 11.5979 22.3418 11.5957 22.3408C11.5906 22.3386 11.5836 22.3348 11.5752 22.3311C11.5583 22.3236 11.5343 22.3133 11.5049 22.2998C11.446 22.2729 11.3627 22.2345 11.2588 22.1836C11.0508 22.0817 10.7587 21.9306 10.4102 21.7314C9.71501 21.3342 8.78369 20.7368 7.84863 19.9355C5.99665 18.3486 4 15.8471 4 12.4307V3.95508L4.63867 3.70703C6.9741 2.80124 9.39045 2.42188 12 2.42188C14.609 2.42192 17.0252 2.80026 19.3613 3.70801L19.999 3.95508V12.4307Z" fill="currentColor"/>
</svg>
