<svg width="24" height="24" viewBox="0 0 24 24" fill="none" xmlns="http://www.w3.org/2000/svg">
<path d="M21.126 15.9717C19.9095 18.7549 17.464 20.8779 14.4746 21.6523C14.8341 21.081 15.1417 20.4002 15.3984 19.6562C15.7642 18.5963 16.0494 17.3455 16.2393 15.9717H21.126Z" fill="currentColor"/>
<path d="M7.68164 15.9717C7.87175 17.3455 8.1567 18.5963 8.52246 19.6562C8.77902 20.3997 9.08634 21.0802 9.44531 21.6514C6.45641 20.8768 4.01126 18.7544 2.79492 15.9717H7.68164Z" fill="currentColor"/>
<path d="M14.2119 15.9717C14.0446 17.0533 13.8136 18.0168 13.5371 18.8184C13.2434 19.6696 12.9181 20.2814 12.6084 20.6611C12.3001 21.039 12.0802 21.1055 11.96 21.1055C11.8396 21.1053 11.6194 21.0386 11.3115 20.6611C11.0019 20.2814 10.6764 19.6693 10.3828 18.8184C10.1063 18.0169 9.87629 17.0532 9.70898 15.9717H14.2119Z" fill="currentColor"/>
<path d="M7.47949 9.9707C7.43714 10.6215 7.41407 11.29 7.41406 11.9707C7.41406 12.6517 7.43711 13.3206 7.47949 13.9717H2.16406C2.0327 13.325 1.96094 12.6562 1.96094 11.9707C1.96095 11.2856 2.03188 10.617 2.16309 9.9707H7.47949Z" fill="currentColor"/>
<path d="M14.4355 9.9707C14.4814 10.6132 14.5059 11.2821 14.5059 11.9707C14.5059 12.6597 14.4815 13.3289 14.4355 13.9717H9.48438C9.43847 13.3289 9.41406 12.6597 9.41406 11.9707C9.41407 11.2821 9.43852 10.6132 9.48438 9.9707H14.4355Z" fill="currentColor"/>
<path d="M21.7588 9.9707C21.89 10.617 21.9599 11.2857 21.96 11.9707C21.96 12.6561 21.8901 13.3251 21.7588 13.9717H16.4414C16.4837 13.3206 16.5059 12.6517 16.5059 11.9707C16.5059 11.29 16.4837 10.6214 16.4414 9.9707H21.7588Z" fill="currentColor"/>
<path d="M9.44531 2.28906C9.08616 2.86042 8.77914 3.54141 8.52246 4.28516C8.15663 5.34535 7.87175 6.59654 7.68164 7.9707H2.79492C4.0111 5.18722 6.45599 3.06371 9.44531 2.28906Z" fill="currentColor"/>
<path d="M11.96 2.83594C12.0802 2.83594 12.3002 2.90261 12.6084 3.28027C12.9181 3.65996 13.2434 4.27185 13.5371 5.12305C13.8138 5.92481 14.0446 6.8887 14.2119 7.9707H9.70898C9.87629 6.88876 10.1062 5.92476 10.3828 5.12305C10.6765 4.27204 11.0019 3.65999 11.3115 3.28027C11.6194 2.90295 11.8396 2.83615 11.96 2.83594Z" fill="currentColor"/>
<path d="M14.4746 2.28809C17.4644 3.06256 19.9096 5.18671 21.126 7.9707H16.2393C16.0494 6.59651 15.7643 5.34537 15.3984 4.28516C15.1416 3.54095 14.8343 2.85959 14.4746 2.28809Z" fill="currentColor"/>
</svg>
