<svg width="24" height="24" viewBox="0 0 24 24" fill="none" xmlns="http://www.w3.org/2000/svg">
<path d="M11.9992 21.0012C16.9694 21.0012 20.9986 16.9712 20.9986 12C20.9986 7.0288 16.9694 2.99884 11.9992 2.99884C7.02893 2.99884 2.99976 7.0288 2.99976 12C2.99976 16.9712 7.02893 21.0012 11.9992 21.0012Z" stroke="currentColor" stroke-width="2" stroke-miterlimit="10"/>
<path d="M11.9992 13.1807C12.6503 13.1807 13.1781 12.6528 13.1781 12.0016C13.1781 11.3503 12.6503 10.8224 11.9992 10.8224C11.3481 10.8224 10.8203 11.3503 10.8203 12.0016C10.8203 12.6528 11.3481 13.1807 11.9992 13.1807Z" fill="currentColor"/>
<path d="M7.54112 13.1792C8.19223 13.1792 8.72006 12.6513 8.72006 12C8.72006 11.3488 8.19223 10.8209 7.54112 10.8209C6.89001 10.8209 6.36218 11.3488 6.36218 12C6.36218 12.6513 6.89001 13.1792 7.54112 13.1792Z" fill="currentColor"/>
<path d="M16.5575 13.1792C17.2086 13.1792 17.7365 12.6513 17.7365 12C17.7365 11.3488 17.2086 10.8209 16.5575 10.8209C15.9064 10.8209 15.3786 11.3488 15.3786 12C15.3786 12.6513 15.9064 13.1792 16.5575 13.1792Z" fill="currentColor"/>
</svg>
