<svg width="24" height="24" viewBox="0 0 24 24" fill="none" xmlns="http://www.w3.org/2000/svg">
<path d="M6.838 16.1513H5.38532C3.83723 15.4249 2.76465 13.8522 2.76465 12.0302C2.76465 9.51725 4.80209 7.4798 7.31505 7.4798C7.5982 7.4798 7.87365 7.50442 8.14141 7.55521C8.34454 5.26385 10.2696 3.46954 12.6133 3.46954C15.094 3.46954 17.1052 5.47929 17.1052 7.95993C17.1052 8.41389 17.0391 8.85246 16.9114 9.26488C16.976 9.2618 17.0391 9.26026 17.1052 9.26026C19.1258 9.26026 20.7646 10.8991 20.7646 12.9197C20.7646 14.3185 19.9798 15.5357 18.8257 16.1513H16.9344M11.7632 12.3826V20.8433M15.0812 17.5272L11.765 20.8435L8.44873 17.5257" stroke="currentColor" stroke-width="2" stroke-miterlimit="10"/>
</svg>
