<svg width="24" height="24" viewBox="0 0 24 24" fill="none" xmlns="http://www.w3.org/2000/svg">
<path d="M20 12.0002C20 7.5803 16.4176 3.99732 11.999 3.99731C7.58039 3.99731 3.99805 7.58029 3.99805 12.0002C3.99817 16.4201 7.58047 20.0032 11.999 20.0032C16.4176 20.0032 19.9999 16.4201 20 12.0002ZM22 12.0002C21.9999 17.5243 17.5225 22.0032 11.999 22.0032C6.47554 22.0032 1.99817 17.5243 1.99805 12.0002C1.99805 6.47609 6.47546 1.99731 11.999 1.99731C17.5226 1.99732 22 6.47609 22 12.0002Z" fill="currentColor"/>
<path d="M13 6.99927V13.5588H11V6.99927H13Z" fill="currentColor"/>
<path d="M11.9992 17.1797C12.6504 17.1797 13.1782 16.6517 13.1782 16.0005C13.1782 15.3493 12.6504 14.8214 11.9992 14.8214C11.3481 14.8214 10.8203 15.3493 10.8203 16.0005C10.8203 16.6517 11.3481 17.1797 11.9992 17.1797Z" fill="currentColor"/>
</svg>
