<svg width="24" height="24" viewBox="0 0 24 24" fill="none" xmlns="http://www.w3.org/2000/svg">
<path d="M18.501 11.7927C18.3173 14.8754 15.9983 17.3822 13.0029 17.8464V19.7371H16V21.7429H8V19.7371H10.9971V17.8474C8.00613 17.3847 5.68921 14.8847 5.49902 11.8083L7.50098 11.6853C7.64737 14.05 9.60769 15.9196 11.999 15.9197C14.3942 15.9197 16.3577 14.0437 16.499 11.6736L18.501 11.7927ZM15.5557 11.2166C15.5554 13.1811 13.9657 14.7771 12 14.7771C10.0343 14.7771 8.44459 13.1811 8.44434 11.2166V5.5144C8.44434 3.54964 10.0341 1.95288 12 1.95288C13.9659 1.95288 15.5557 3.54964 15.5557 5.5144V11.2166Z" fill="currentColor"/>
</svg>
