<svg width="24" height="24" viewBox="0 0 24 24" fill="none" xmlns="http://www.w3.org/2000/svg">
<path d="M13.7773 3C15.3113 3 16.5554 4.24342 16.5557 5.77734C16.5557 6.21655 16.4511 6.63071 16.2695 7H21V13H19V21H5V13H3V7H7.73145C7.54993 6.6307 7.44531 6.21656 7.44531 5.77734C7.44555 4.24356 8.68888 3.00023 10.2227 3C10.8988 3 11.5182 3.24203 12 3.64355C12.4816 3.24192 13.1012 3.0001 13.7773 3ZM7 19H11V13H7V19ZM13 19H17V13H13V19ZM5 11H11V9H5V11ZM13 11H19V9H13V11ZM10.2227 5C9.79345 5.00023 9.44555 5.34813 9.44531 5.77734C9.44531 6.20675 9.7933 6.55543 10.2227 6.55566C10.6493 6.55566 10.9953 6.21164 11 5.78613V5.76758C10.9945 5.34273 10.6488 5 10.2227 5ZM13.7773 5C13.3514 5.00023 13.0055 5.34287 13 5.76758C13 5.77083 13.001 5.77409 13.001 5.77734C13.001 5.78028 13 5.7832 13 5.78613C13.0047 6.2115 13.3509 6.55543 13.7773 6.55566C14.2069 6.55566 14.5557 6.2069 14.5557 5.77734C14.5554 5.34799 14.2068 5 13.7773 5Z" fill="currentColor"/>
</svg>
