<svg width="24" height="24" viewBox="0 0 24 24" fill="none" xmlns="http://www.w3.org/2000/svg">
<path d="M11.999 2.00488C17.5217 2.00488 21.9989 6.48264 21.999 12.0059C21.999 17.5292 17.5217 22.0068 11.999 22.0068C6.4765 22.0066 2 17.529 2 12.0059C2.0001 6.48277 6.47656 2.0051 11.999 2.00488ZM11.9932 15.167C11.3423 15.1671 10.8147 15.6947 10.8145 16.3457C10.8145 16.9969 11.3421 17.5253 11.9932 17.5254C12.6443 17.5254 13.1719 16.9969 13.1719 16.3457C13.1716 15.6947 12.6441 15.167 11.9932 15.167ZM11.999 6.49316C10.1809 6.49316 8.50195 7.82793 8.50195 9.71289H10.502C10.502 9.14692 11.0581 8.49316 11.999 8.49316C12.9398 8.49331 13.4951 9.14698 13.4951 9.71289C13.495 10.2324 13.267 10.651 13.1533 10.8135L13.1523 10.8154C12.946 11.1114 12.6772 11.3317 12.4072 11.4961C11.528 12.0311 10.9994 12.9843 10.9971 14.0059L12.9971 14.0098C12.998 13.6768 13.1698 13.3739 13.4473 13.2051V13.2041C13.8867 12.9366 14.3874 12.5408 14.792 11.9609C15.0456 11.5985 15.495 10.7825 15.4951 9.71289C15.4951 7.82804 13.817 6.49332 11.999 6.49316Z" fill="currentColor"/>
</svg>
