<svg width="24" height="24" viewBox="0 0 24 24" fill="none" xmlns="http://www.w3.org/2000/svg">
<path d="M12.9932 11L20.999 11.0059L20.998 13.0059L12.9941 13L12.999 21.001H10.999L10.9932 11H12.9932ZM20.9404 20.9307H15.0117V15.001H20.9404V20.9307ZM9 20.918H3.01855V14.9355H9V20.918ZM17.0117 18.9307H18.9404V17.001H17.0117V18.9307ZM5.01855 18.918H7V16.9355H5.01855V18.918ZM8.9541 11.0059L8.95215 13.0059L2.99902 13L3.00098 11L8.9541 11.0059ZM9 9.00488H3V3.00391H9V9.00488ZM21.1689 9H15.1738V3.00391H21.1689V9ZM12.999 8.95996H10.999V2.99902H12.999V8.95996ZM5 7.00488H7V5.00391H5V7.00488ZM17.1738 7H19.1689V5.00391H17.1738V7Z" fill="currentColor"/>
</svg>
