<svg width="24" height="24" viewBox="0 0 24 24" fill="none" xmlns="http://www.w3.org/2000/svg">
<path d="M21.1885 4.229L4.27734 21.1421L2.86328 19.728L19.7744 2.81494L21.1885 4.229Z" fill="currentColor"/>
<path d="M7.99929 6.50351C7.99911 5.67493 7.32726 5.0036 6.49929 5.00351C5.67124 5.00351 4.99946 5.67487 4.99929 6.50351C4.99929 7.3323 5.67113 8.00449 6.49929 8.00449C7.32737 8.0044 7.99929 7.33224 7.99929 6.50351ZM9.99929 6.50351C9.99929 8.43645 8.4323 10.0044 6.49929 10.0045C4.5662 10.0045 2.99929 8.4365 2.99929 6.50351C2.99946 4.57067 4.5663 3.00351 6.49929 3.00351C8.43219 3.0036 9.99911 4.57072 9.99929 6.50351Z" fill="currentColor"/>
<path d="M18.9985 17.4894C18.9982 16.6549 18.3217 15.9787 17.4877 15.9787C16.6537 15.9787 15.9772 16.6549 15.977 17.4894C15.977 18.3242 16.6536 19.0012 17.4877 19.0012C18.3218 19.0011 18.9985 18.3242 18.9985 17.4894ZM20.9985 17.4894C20.9985 19.4284 19.4267 21.0011 17.4877 21.0012C15.5487 21.0012 13.977 19.4284 13.977 17.4894C13.9772 15.5506 15.5488 13.9787 17.4877 13.9787C19.4266 13.9787 20.9982 15.5507 20.9985 17.4894Z" fill="currentColor"/>
</svg>
