<svg width="24" height="24" viewBox="0 0 24 24" fill="none" xmlns="http://www.w3.org/2000/svg">
<path d="M11.999 1.99884C17.5218 1.99884 21.9989 6.47648 21.999 11.9998C21.999 17.5232 17.5218 22.0008 11.999 22.0008C10.468 22.0007 9.01578 21.6556 7.7168 21.0389L2.04297 21.9627L2.96191 16.283C2.34568 14.9838 2 13.5305 2 11.9998C2.0001 6.47661 6.47644 1.99906 11.999 1.99884ZM11.999 3.99884C7.58137 3.99906 4.0001 7.58082 4 11.9998C4 13.3242 4.32144 14.5721 4.88867 15.6697L5.04004 15.9627L4.45996 19.5428L7.71289 19.0145L8.03906 18.9608L8.33203 19.1131C9.42949 19.6804 10.6753 20.0007 11.999 20.0008C16.4169 20.0008 19.999 16.419 19.999 11.9998C19.9989 7.58068 16.4169 3.99884 11.999 3.99884ZM15.999 10.824C16.65 10.824 17.1776 11.3517 17.1777 12.0027C17.1777 12.654 16.6501 13.1824 15.999 13.1824C15.348 13.1823 14.8203 12.6539 14.8203 12.0027C14.8205 11.3517 15.3481 10.8242 15.999 10.824ZM8 10.8182C8.65099 10.8183 9.1787 11.3457 9.17871 11.9969C9.17871 12.648 8.651 13.1755 8 13.1756C7.34889 13.1756 6.82129 12.6481 6.82129 11.9969C6.8213 11.3457 7.3489 10.8182 8 10.8182ZM11.999 10.8182C12.6501 10.8182 13.1787 11.3457 13.1787 11.9969C13.1787 12.6481 12.6501 13.1756 11.999 13.1756C11.3481 13.1753 10.8203 12.648 10.8203 11.9969C10.8203 11.3458 11.3481 10.8184 11.999 10.8182Z" fill="currentColor"/>
</svg>
