<svg width="24" height="24" viewBox="0 0 24 24" fill="none" xmlns="http://www.w3.org/2000/svg">
<path d="M20.999 21.001H3V2.99902H20.999V21.001ZM5 15.6367V19.001H18.999V17.2109L9.98535 14.0537L5 15.6367ZM5 13.5381L9.69727 12.0469L10.0156 11.9463L18.999 15.0928V4.99902H5V13.5381ZM15 6C16.6568 6.00007 17.9999 7.34335 18 9C17.9997 10.6565 16.6567 12.0009 15 12.001C13.3432 12.001 12.0003 10.6566 12 9C12.0001 7.3433 13.3431 6 15 6ZM15 8C14.4481 8 14.0001 8.44751 14 9C14.0003 9.55238 14.4481 10.001 15 10.001C15.5518 10.0009 15.9997 9.55234 16 9C15.9999 8.44755 15.5519 8.00007 15 8Z" fill="currentColor"/>
</svg>
