<svg width="24" height="24" viewBox="0 0 24 24" fill="none" xmlns="http://www.w3.org/2000/svg">
<path d="M12.0813 20.3591C12.7324 20.3591 13.2602 19.8312 13.2602 19.18C13.2602 18.5287 12.7324 18.0008 12.0813 18.0008C11.4302 18.0008 10.9023 18.5287 10.9023 19.18C10.9023 19.8312 11.4302 20.3591 12.0813 20.3591Z" fill="currentColor"/>
<path d="M2.2915 8.32513C4.76048 5.81092 8.19853 4.25208 11.9992 4.25208C15.7999 4.25208 19.1592 5.77542 21.6205 8.2387M5.43325 12.0015C7.05661 10.1603 9.433 8.99961 12.081 8.99961C14.729 8.99961 17.0174 10.1186 18.6392 11.9012M8.74785 15.9095C9.4191 14.7673 10.6598 13.9987 12.081 13.9987C13.5022 13.9987 14.6611 14.7164 15.3462 15.7983" stroke="currentColor" stroke-width="2" stroke-miterlimit="10"/>
</svg>
