<svg width="24" height="24" viewBox="0 0 24 24" fill="none" xmlns="http://www.w3.org/2000/svg">
<path d="M17.1904 3.00903L22.3809 11.9993L17.1904 20.9915H6.80762L6.51953 20.4905L1.61914 11.9993L6.80859 3.00903H17.1904ZM3.92773 11.9993L7.96387 18.9915H16.0361L20.0713 11.9993L16.0361 5.00903H7.96289L3.92773 11.9993Z" fill="currentColor"/>
<path d="M13 6.99536V13.551H11V6.99536H13Z" fill="currentColor"/>
<path d="M12.1785 17.1714C12.8293 17.1714 13.357 16.6438 13.357 15.9929C13.357 15.3421 12.8293 14.8145 12.1785 14.8145C11.5276 14.8145 11 15.3421 11 15.9929C11 16.6438 11.5276 17.1714 12.1785 17.1714Z" fill="currentColor"/>
</svg>
