<svg width="24" height="24" viewBox="0 0 24 24" fill="none" xmlns="http://www.w3.org/2000/svg">
<path d="M11.9404 2.00659C17.4631 2.00659 21.9403 6.48435 21.9404 12.0076C21.9404 17.5309 17.4631 22.0085 11.9404 22.0085C6.4179 22.0083 1.94141 17.5307 1.94141 12.0076C1.9415 6.48448 6.41796 2.00681 11.9404 2.00659ZM9.02148 17.0066H14.9453V15.0066H9.02148V17.0066ZM11.9688 6.04077C9.88492 6.04077 8.19548 7.73049 8.19531 9.81421C8.19531 11.8981 9.88481 13.5876 11.9688 13.5876C14.0525 13.5874 15.7412 11.8979 15.7412 9.81421C15.741 7.73064 14.0524 6.04102 11.9688 6.04077ZM11.9688 8.04077C12.9474 8.04102 13.741 8.83485 13.7412 9.81421C13.7412 10.7937 12.9475 11.5874 11.9688 11.5876C10.9897 11.5876 10.1953 10.7939 10.1953 9.81421C10.1955 8.83469 10.9899 8.04077 11.9688 8.04077Z" fill="currentColor"/>
</svg>
