<svg width="24" height="24" viewBox="0 0 24 24" fill="none" xmlns="http://www.w3.org/2000/svg">
<path d="M21.0157 12C21.0157 16.9713 16.9866 21.0012 12.0163 21.0012C10.5287 21.0012 9.12602 20.64 7.88999 20.001L3.26837 20.7527L4.01678 16.1286C3.37793 14.8923 3.01685 13.4878 3.01685 12C3.01685 7.02868 7.04591 2.99884 12.0163 2.99884C16.9866 2.99884 21.0157 7.02868 21.0157 12Z" stroke="currentColor" stroke-width="2" stroke-miterlimit="10"/>
<path d="M6.99951 9.6355H16.9989" stroke="currentColor" stroke-width="2" stroke-miterlimit="10"/>
<path d="M11.9822 6.47308V9.28363" stroke="currentColor" stroke-width="2" stroke-miterlimit="10"/>
<path d="M9.89136 9.66327C9.89136 9.66327 9.8713 15.9804 16.9989 16.0005" stroke="currentColor" stroke-width="2" stroke-miterlimit="10"/>
<path d="M14.1071 9.66327C14.1071 9.66327 14.1271 15.9804 6.99951 16.0005" stroke="currentColor" stroke-width="2" stroke-miterlimit="10"/>
</svg>
