<svg width="24" height="24" viewBox="0 0 24 24" fill="none" xmlns="http://www.w3.org/2000/svg">
<path d="M20.9988 12C20.9988 16.9713 16.9698 21.0012 11.9994 21.0012C10.5119 21.0012 9.10917 20.64 7.87314 20.001L3.25153 20.7527L3.99994 16.1286C3.36109 14.8923 3 13.4878 3 12C3 7.02868 7.02906 2.99884 11.9994 2.99884C16.9698 2.99884 20.9988 7.02868 20.9988 12Z" stroke="currentColor" stroke-width="2" stroke-miterlimit="10"/>
<path d="M7.99974 13.1761C8.65085 13.1761 9.17867 12.6481 9.17867 11.9969C9.17867 11.3457 8.65085 10.8177 7.99974 10.8177C7.34863 10.8177 6.8208 11.3457 6.8208 11.9969C6.8208 12.6481 7.34863 13.1761 7.99974 13.1761Z" fill="currentColor"/>
<path d="M11.9995 13.1761C12.6506 13.1761 13.1784 12.6481 13.1784 11.9969C13.1784 11.3457 12.6506 10.8177 11.9995 10.8177C11.3484 10.8177 10.8206 11.3457 10.8206 11.9969C10.8206 12.6481 11.3484 13.1761 11.9995 13.1761Z" fill="currentColor"/>
<path d="M15.9992 13.1822C16.6504 13.1822 17.1782 12.6543 17.1782 12.0031C17.1782 11.3518 16.6504 10.8239 15.9992 10.8239C15.3481 10.8239 14.8203 11.3518 14.8203 12.0031C14.8203 12.6543 15.3481 13.1822 15.9992 13.1822Z" fill="currentColor"/>
</svg>
