<svg width="24" height="24" viewBox="0 0 24 24" fill="none" xmlns="http://www.w3.org/2000/svg">
<path d="M18.1631 11.9944C18.1631 11.5153 18.1065 11.0511 17.999 10.6086L17.8203 9.87427L19.6191 8.85767L18.5908 7.11548L16.7773 8.13989L16.2422 7.6438C15.551 7.00428 14.7062 6.51945 13.7666 6.24536L13.0469 6.0354V3.99536H10.9531V6.0354L10.2334 6.24536C9.29385 6.51945 8.44896 7.00428 7.75781 7.6438L7.22266 8.13989L5.4082 7.11548L4.37988 8.85767L6.17969 9.87427L6.00098 10.6086C5.89348 11.0511 5.83695 11.5153 5.83691 11.9944C5.83691 12.4735 5.89333 12.9372 6.00195 13.3801L6.18262 14.1165L5.52246 14.4895L4.37988 15.1331L5.4082 16.8752L7.22266 15.8518L7.75781 16.3469C8.44899 16.9865 9.29381 17.4709 10.2324 17.7434L10.9531 17.9534V19.9944H13.0469V17.9534L13.7676 17.7434C14.7062 17.4709 15.551 16.9865 16.2422 16.3469L16.7773 15.8518L18.5908 16.8752L19.6191 15.1331L18.4775 14.4895L17.8174 14.1165L17.998 13.3801C18.1067 12.9372 18.1631 12.4735 18.1631 11.9944ZM13.9746 12.0999C13.9746 11.0137 13.0661 10.094 11.8975 10.094C10.729 10.0942 9.82129 11.0138 9.82129 12.0999C9.82136 13.1858 10.7291 14.1055 11.8975 14.1057C13.0661 14.1057 13.9745 13.186 13.9746 12.0999ZM15.9746 12.0999C15.9745 14.3339 14.1268 16.1057 11.8975 16.1057C9.66835 16.1055 7.82136 14.3338 7.82129 12.0999C7.82129 9.86589 9.66831 8.09424 11.8975 8.09399C14.1268 8.09399 15.9746 9.86573 15.9746 12.0999ZM20.1631 11.9944C20.1631 12.3679 20.1341 12.7362 20.083 13.0979L22.3799 14.3928L19.3154 19.5803L17.0312 18.2903C16.4315 18.7514 15.7649 19.1311 15.0469 19.4143V21.9944H8.95312V19.4143C8.23485 19.1311 7.56765 18.7516 6.96777 18.2903L4.68457 19.5803L1.62012 14.3928L3.91602 13.0979C3.86496 12.7363 3.83691 12.3679 3.83691 11.9944C3.83693 11.6211 3.8654 11.2536 3.91602 10.8928L1.62012 9.5979L4.68457 4.41138L6.96875 5.69946C7.56858 5.23832 8.2353 4.85808 8.95312 4.57446V1.99536H15.0469V4.57446C15.7645 4.85799 16.4306 5.23853 17.0303 5.69946L19.3154 4.41138L22.3799 9.5979L20.083 10.8928C20.1336 11.2536 20.1631 11.6211 20.1631 11.9944Z" fill="currentColor"/>
</svg>
