<svg width="24" height="24" viewBox="0 0 24 24" fill="none" xmlns="http://www.w3.org/2000/svg">
<path d="M20 12.0063C20 7.5864 16.4176 4.00342 11.999 4.00342C7.58039 4.00342 3.99805 7.5864 3.99805 12.0063C3.99817 16.4262 7.58047 20.0093 11.999 20.0093C16.4176 20.0093 19.9999 16.4262 20 12.0063ZM22 12.0063C21.9999 17.5304 17.5225 22.0093 11.999 22.0093C6.47554 22.0093 1.99817 17.5304 1.99805 12.0063C1.99805 6.48219 6.47546 2.00342 11.999 2.00342C17.5226 2.00342 22 6.48219 22 12.0063Z" fill="currentColor"/>
<path d="M12.9991 10.5368V17.0964H10.9991V10.5368H12.9991Z" fill="currentColor"/>
<path d="M11.9991 9.27428C12.6502 9.27428 13.178 8.74635 13.178 8.09512C13.178 7.44388 12.6502 6.91595 11.9991 6.91595C11.348 6.91595 10.8201 7.44388 10.8201 8.09512C10.8201 8.74635 11.348 9.27428 11.9991 9.27428Z" fill="currentColor"/>
</svg>
