<svg width="24" height="24" viewBox="0 0 24 24" fill="none" xmlns="http://www.w3.org/2000/svg">
<path d="M21.999 19.0011H5.9707V17.0011H19.999V8.80383H21.999V19.0011ZM18.999 16.0001H2V2.93567H18.999V16.0001ZM4 14.0001H16.999V4.93567H4V14.0001ZM6.92773 11.9327H4.92773V6.93176H6.92773V11.9327ZM16.0146 11.9327H14.0146V6.93176H16.0146V11.9327ZM10.5059 7.40735C11.6446 7.40735 12.5672 8.33047 12.5674 9.46887C12.5671 10.6072 11.6445 11.5314 10.5059 11.5314C9.36728 11.5313 8.4446 10.6072 8.44434 9.46887C8.44452 8.33052 9.36723 7.40742 10.5059 7.40735ZM10.5059 9.40735C10.4722 9.40742 10.4445 9.43473 10.4443 9.46887C10.4446 9.50295 10.4722 9.5313 10.5059 9.53137C10.5396 9.53137 10.5671 9.503 10.5674 9.46887C10.5672 9.43468 10.5396 9.40735 10.5059 9.40735Z" fill="currentColor"/>
</svg>
