<svg width="24" height="24" viewBox="0 0 24 24" fill="none" xmlns="http://www.w3.org/2000/svg">
<path d="M18.9458 9.98096C18.9458 10.1585 18.9377 10.3345 18.9224 10.5083C21.2326 10.9628 22.9741 12.9998 22.9741 15.4419V15.856L22.9507 15.8784C22.8016 17.6166 21.7716 19.103 20.3091 19.8833L20.0884 20.0005H4.81982L4.61768 19.9058C2.57653 18.9477 1.15876 16.8718 1.15869 14.4634C1.15869 11.144 3.84828 8.45369 7.16748 8.45361C7.19742 8.45361 7.22746 8.45416 7.25732 8.45459C7.93073 5.91036 10.2462 4.03764 13.0005 4.0376C16.2818 4.0376 18.9457 6.69783 18.9458 9.98096Z" fill="currentColor"/>
</svg>
