<svg width="24" height="24" viewBox="0 0 24 24" fill="none" xmlns="http://www.w3.org/2000/svg">
<path d="M14.4997 12.4997C14.4995 11.1188 13.3799 9.9998 11.9997 9.99967C10.6195 9.99967 9.49997 11.1187 9.49973 12.4997C9.49973 13.8808 10.6193 15.0007 11.9997 15.0007C13.38 15.0005 14.4997 13.8807 14.4997 12.4997ZM16.4997 12.4997C16.4997 14.9849 14.485 17.0005 11.9997 17.0007C9.51439 17.0007 7.49973 14.985 7.49973 12.4997C7.49997 10.0145 9.51454 7.99967 11.9997 7.99967C14.4848 7.9998 16.4995 10.0146 16.4997 12.4997Z" fill="currentColor"/>
<path d="M15.6172 2.99902L16.6172 4.99902H20.999V21.001H3V4.99902H7.38184L8.38184 2.99902H15.6172ZM8.61816 6.99902H5V19.001H18.999V6.99902H15.3809L14.3809 4.99902H9.61816L8.61816 6.99902Z" fill="currentColor"/>
</svg>
