<svg width="24" height="24" viewBox="0 0 24 24" fill="none" xmlns="http://www.w3.org/2000/svg">
<path d="M12.9993 6.90985V13.4694H10.9993V6.90985H12.9993Z" fill="currentColor"/>
<path d="M11.9992 17.0902C12.6504 17.0902 13.1782 16.5623 13.1782 15.911C13.1782 15.2598 12.6504 14.7319 11.9992 14.7319C11.3481 14.7319 10.8203 15.2598 10.8203 15.911C10.8203 16.5623 11.3481 17.0902 11.9992 17.0902Z" fill="currentColor"/>
<path d="M19.999 11.9998C19.9989 7.58068 16.4169 3.99884 11.999 3.99884C7.58137 3.99906 4.0001 7.58082 4 11.9998C4 13.3242 4.32144 14.5721 4.88867 15.6697L5.04004 15.9627L4.45996 19.5428L7.71289 19.0145L8.03906 18.9608L8.33203 19.1131C9.42949 19.6804 10.6753 20.0007 11.999 20.0008C16.4169 20.0008 19.999 16.419 19.999 11.9998ZM21.999 11.9998C21.999 17.5232 17.5218 22.0008 11.999 22.0008C10.468 22.0007 9.01578 21.6556 7.7168 21.0389L2.04297 21.9627L2.96191 16.283C2.34568 14.9838 2 13.5305 2 11.9998C2.0001 6.47661 6.47644 1.99906 11.999 1.99884C17.5218 1.99884 21.9989 6.47648 21.999 11.9998Z" fill="currentColor"/>
</svg>
