<svg width="24" height="24" viewBox="0 0 24 24" fill="none" xmlns="http://www.w3.org/2000/svg">
<path d="M12 1.99902C17.4932 1.99919 21.9461 6.45347 21.9463 11.9473H19.9463C19.9461 7.55768 16.3883 3.99919 12 3.99902C7.61157 3.99902 4.05297 7.55758 4.05273 11.9473C4.05273 16.3372 7.61143 19.8965 12 19.8965C14.2641 19.8964 16.3078 18.9482 17.7568 17.4258H14.4072V15.4258H20.9951V22.0146H18.9951V19.0186C17.1985 20.796 14.728 21.8964 12 21.8965C6.50649 21.8965 2.05273 17.4414 2.05273 11.9473C2.05297 6.45337 6.50664 1.99902 12 1.99902Z" fill="currentColor"/>
<path d="M12.998 11L18.0107 11.0029L18.0098 13.0029L11.001 13L10.9922 5.9834L12.9922 5.98145L12.998 11Z" fill="currentColor"/>
</svg>
