<svg width="24" height="24" viewBox="0 0 24 24" fill="none" xmlns="http://www.w3.org/2000/svg">
<path d="M20.9986 12C20.9986 7.02868 16.9695 2.99884 11.9992 2.99884C7.02882 2.99884 2.99976 7.02868 2.99976 12C2.99976 16.9713 7.02882 21.0012 11.9992 21.0012C13.8494 21.0012 15.5699 20.4424 16.9989 19.4855" stroke="currentColor" stroke-width="2" stroke-miterlimit="10"/>
<path d="M15.3939 11.6651C15.3939 9.78981 13.874 8.26959 11.9991 8.26959C10.1242 8.26959 8.60425 9.78981 8.60425 11.6651V12.3457C8.60425 14.221 10.1242 15.7412 11.9991 15.7412C13.874 15.7412 15.3939 14.221 15.3939 12.3457V11.6651Z" stroke="currentColor" stroke-width="2" stroke-miterlimit="10"/>
<path d="M15.394 12V6.99939" stroke="currentColor" stroke-width="2" stroke-miterlimit="10"/>
<path d="M20.9986 12V13.2733C20.9986 14.8213 19.7441 16.0761 18.1963 16.0761C16.6486 16.0761 15.394 14.8213 15.394 13.2733V10.4705" stroke="currentColor" stroke-width="2" stroke-miterlimit="10"/>
</svg>
