<svg width="24" height="24" viewBox="0 0 24 24" fill="none" xmlns="http://www.w3.org/2000/svg">
<path d="M20.9986 12.0062C20.9986 16.9775 16.9695 21.0073 11.9992 21.0073C10.5116 21.0073 9.10893 20.6462 7.8729 20.0072L3.25128 20.7588L3.99969 16.1348C3.36084 14.8985 2.99976 13.494 2.99976 12.0062C2.99976 7.03484 7.02882 3.005 11.9992 3.005C16.9695 3.005 20.9986 7.03484 20.9986 12.0062Z" stroke="currentColor" stroke-width="2" stroke-miterlimit="10"/>
<path d="M9.50415 9.70343C9.50415 8.47796 10.6214 7.48401 12.0009 7.48401C13.3804 7.48401 14.4977 8.47796 14.4977 9.70343C14.4977 10.4983 14.1582 11.1156 13.9745 11.378C13.669 11.8164 13.2848 12.125 12.9299 12.3411C12.3512 12.693 12.0009 13.3212 11.9994 13.9987" stroke="currentColor" stroke-width="2" stroke-miterlimit="10"/>
<path d="M11.9963 17.5162C12.6474 17.5162 13.1753 16.9882 13.1753 16.337C13.1753 15.6858 12.6474 15.1578 11.9963 15.1578C11.3452 15.1578 10.8174 15.6858 10.8174 16.337C10.8174 16.9882 11.3452 17.5162 11.9963 17.5162Z" fill="currentColor"/>
</svg>
