<svg width="24" height="24" viewBox="0 0 24 24" fill="none" xmlns="http://www.w3.org/2000/svg">
<path d="M4.99935 18.9988H7.99446V21.0001H2.99805V15.9988H4.99935V18.9988Z" fill="currentColor"/>
<path d="M21.002 21.0001H15.9987V18.9988H19.0007V15.9988H21.002V21.0001Z" fill="currentColor"/>
<path d="M16.6075 15.3655C15.8764 17.2146 14.0736 18.5258 11.9599 18.5258C9.93264 18.5258 8.19004 17.3173 7.40717 15.5883L9.23062 14.7626C9.70157 15.8027 10.7477 16.5245 11.9599 16.5245C13.2246 16.5245 14.3064 15.7418 14.7459 14.6307L16.6075 15.3655Z" fill="currentColor"/>
<path d="M12.9987 13.9984H9.99674V11.9971H10.9974V7.93198H12.9987V13.9984Z" fill="currentColor"/>
<path d="M8.99609 10.9975H6.99479V6.9968H8.99609V10.9975Z" fill="currentColor"/>
<path d="M16.9993 10.9975H14.998V6.9968H16.9993V10.9975Z" fill="currentColor"/>
<path d="M21.0029 7.99648H19.0016V5.00136H15.9831V3.00006H21.0029V7.99648Z" fill="currentColor"/>
<path d="M7.90358 5.00136H4.99935V7.93198H2.99805V3.00006H7.90358V5.00136Z" fill="currentColor"/>
</svg>
