<svg width="24" height="24" viewBox="0 0 24 24" fill="none" xmlns="http://www.w3.org/2000/svg">
<path fill-rule="evenodd" clip-rule="evenodd" d="M11.999 1.99707C17.5226 1.99708 22 6.47585 22 12C21.9999 17.524 17.5225 22.0029 11.999 22.0029C6.47554 22.0029 1.99817 17.5241 1.99805 12C1.99805 6.47584 6.47546 1.99707 11.999 1.99707ZM11.0693 19.9473C11.3744 19.9826 11.6845 20.0029 11.999 20.0029C14.0492 20.0029 15.9182 19.2303 17.334 17.9619L11.7324 17.6807L11.0693 19.9473ZM11.999 3.99707C11.2174 3.99707 10.4622 4.11028 9.74805 4.31934L12.2568 6.84668L8.61035 12.9238L8.13672 12.9902L6.7627 13.1807L5.61719 16.8252C6.51013 18.0049 7.7221 18.9282 9.125 19.4688L10.2559 15.6045L18.9043 16.0391C19.2285 15.4857 19.4881 14.8906 19.6729 14.2627L13.8984 13.9629L12.6396 9.78223L16.0986 7.4043L16.5078 5.38867C15.2239 4.51092 13.6715 3.99707 11.999 3.99707ZM7.85352 5.15332C5.54216 6.55649 3.99805 9.09799 3.99805 12C3.99807 12.7871 4.11348 13.5471 4.3252 14.2656L5.23438 11.374L7.3877 11.0742L9.74121 7.15137L7.80469 5.20215L7.85352 5.15332ZM17.8984 8.59473L17.5654 8.82422L14.9746 10.6035L15.4072 12.0381L19.9922 12.2764C19.9953 12.1846 20 12.0925 20 12C20 10.097 19.3346 8.35011 18.2256 6.97656L17.8984 8.59473Z" fill="currentColor"/>
</svg>
