<svg width="24" height="24" viewBox="0 0 24 24" fill="none" xmlns="http://www.w3.org/2000/svg">
<path d="M19.999 11.9998C19.9989 7.58074 16.4167 3.99878 11.999 3.99878C7.58149 3.99899 4.0001 7.58087 4 11.9998C4 16.4187 7.58143 20.0005 11.999 20.0007C16.4168 20.0007 19.999 16.4189 19.999 11.9998ZM21.999 11.9998C21.999 17.5231 17.5217 22.0007 11.999 22.0007C6.4765 22.0005 2 17.5229 2 11.9998C2.0001 6.47667 6.47656 1.99899 11.999 1.99878C17.5217 1.99878 21.9989 6.47653 21.999 11.9998Z" fill="currentColor"/>
<path d="M14.5645 13.8728L14.4131 14.3347L7.16406 16.9617L9.66797 9.55835L10.1514 9.40601L16.7207 7.3269L14.5645 13.8728ZM11.2373 11.1589L10.3896 13.6648L12.8164 12.7849L13.5986 10.4119L11.2373 11.1589Z" fill="currentColor"/>
</svg>
