<svg width="24" height="24" viewBox="0 0 24 24" fill="none" xmlns="http://www.w3.org/2000/svg">
<path fill-rule="evenodd" clip-rule="evenodd" d="M11.999 1.99707C17.5226 1.99708 22 6.47585 22 12C21.9999 17.524 17.5225 22.0029 11.999 22.0029C6.47554 22.0029 1.99817 17.5241 1.99805 12C1.99805 6.47584 6.47546 1.99707 11.999 1.99707ZM11.999 3.99707C11.2174 3.99707 10.4622 4.11028 9.74805 4.31934L12.2568 6.84668L8.61035 12.9238L8.13672 12.9902L6.7627 13.1807L5.61719 16.8252C6.51013 18.0049 7.7221 18.9282 9.125 19.4688L10.2559 15.6045L18.9043 16.0391C19.2285 15.4857 19.4881 14.8906 19.6729 14.2627L13.8984 13.9629L12.6396 9.78223L16.0986 7.4043L16.5078 5.38867C15.2239 4.51092 13.6715 3.99707 11.999 3.99707Z" fill="currentColor"/>
</svg>
