<svg width="24" height="24" viewBox="0 0 24 24" fill="none" xmlns="http://www.w3.org/2000/svg">
<path d="M12.081 20.359C12.7321 20.359 13.2599 19.831 13.2599 19.1798C13.2599 18.5286 12.7321 18.0007 12.081 18.0007C11.4299 18.0007 10.902 18.5286 10.902 19.1798C10.902 19.831 11.4299 20.359 12.081 20.359Z" fill="currentColor"/>
<path d="M11.9995 3.25195C16.0776 3.25203 19.6877 4.89009 22.3276 7.53223L20.9136 8.94531C18.6312 6.66102 15.5225 5.25203 11.9995 5.25195C8.47814 5.25195 5.29399 6.69501 3.00537 9.02539L1.57764 7.62402C4.22695 4.92617 7.91968 3.25195 11.9995 3.25195Z" fill="currentColor"/>
<path d="M12.0807 7.99949C15.025 7.99949 17.5774 9.2484 19.3786 11.228L17.8991 12.5737C16.4566 10.9884 14.4321 9.99949 12.0807 9.99949C9.73163 9.99957 7.6246 11.0278 6.18325 12.6626L4.68325 11.3403C6.4885 9.29271 9.13407 7.99957 12.0807 7.99949Z" fill="currentColor"/>
<path d="M12.0809 12.9986C13.866 12.9986 15.3344 13.9102 16.1912 15.2632L14.5018 16.3336C13.9883 15.5227 13.1381 14.9986 12.0809 14.9986C11.0299 14.9986 10.1098 15.5657 9.61016 16.4156L7.88555 15.4029C8.7284 13.9688 10.2897 12.9986 12.0809 12.9986Z" fill="currentColor"/>
</svg>
