<svg width="24" height="24" viewBox="0 0 24 24" fill="none" xmlns="http://www.w3.org/2000/svg">
<path fill-rule="evenodd" clip-rule="evenodd" d="M19.7949 9.82568L19.7832 11.8257L18.0723 11.8149L18.0703 12.6929L19.7646 12.6987L19.7578 14.6987L18.0664 14.6929L18.0645 15.6899C18.3891 15.8166 18.6951 16.0068 18.9629 16.2622C20.0629 17.3116 20.1039 19.0547 19.0547 20.1548C18.0053 21.2546 16.2622 21.2957 15.1621 20.2466C14.0621 19.1973 14.0213 17.4542 15.0703 16.354C15.3583 16.0521 15.6996 15.8317 16.0645 15.6899L16.0896 9.82568H19.7949ZM17.582 17.7095C17.2811 17.4225 16.8045 17.434 16.5176 17.7349C16.2309 18.0358 16.2422 18.5125 16.543 18.7993C16.8438 19.086 17.3205 19.0745 17.6074 18.7739C17.8943 18.473 17.8828 17.9964 17.582 17.7095Z" fill="currentColor"/>
<path d="M13.7666 13.7563L13.7637 15.7563L8.76465 15.7505C6.90208 15.7508 5.33598 17.0253 4.8916 18.7495L12.7803 18.7456L12.7812 20.7456L2.76562 20.7505V19.7505C2.76562 16.4376 5.45369 13.7505 8.7666 13.7505L13.7666 13.7563Z" fill="currentColor"/>
<path fill-rule="evenodd" clip-rule="evenodd" d="M11.7656 2.75049C14.2506 2.75076 16.2656 4.7655 16.2656 7.25049C16.2655 9.73538 14.2505 11.7502 11.7656 11.7505C9.28054 11.7505 7.26575 9.73554 7.26562 7.25049C7.26562 4.76533 9.28047 2.75049 11.7656 2.75049ZM11.7656 4.75049C10.385 4.75049 9.26562 5.8699 9.26562 7.25049C9.26575 8.63097 10.3851 9.75049 11.7656 9.75049C13.1459 9.75022 14.2655 8.63081 14.2656 7.25049C14.2656 5.87007 13.146 4.75076 11.7656 4.75049Z" fill="currentColor"/>
</svg>
