<svg width="24" height="24" viewBox="0 0 24 24" fill="none" xmlns="http://www.w3.org/2000/svg">
<path d="M12.0166 1.9834C12.3251 1.9834 12.6308 1.99706 12.9316 2.02637L12.9346 4.04199C12.6338 4.00652 12.3266 3.98828 12.0166 3.98828C11.6481 3.98829 11.2858 4.01318 10.9297 4.0625C7.03458 4.5947 4.02344 7.9346 4.02344 11.9824C4.02358 16.03 7.04648 19.3847 10.9521 19.9062C11.3007 19.9525 11.6557 19.9775 12.0166 19.9775C12.3344 19.9775 12.6495 19.9589 12.958 19.9219L12.9609 21.9385C12.6509 21.9678 12.3344 21.9834 12.0166 21.9834C11.6588 21.9834 11.3036 21.9643 10.9551 21.9258C5.93878 21.3949 2.01772 17.1268 2.01758 11.9824C2.01758 6.83793 5.92326 2.58769 10.9258 2.04297C11.2836 2.00287 11.648 1.98341 12.0166 1.9834ZM17.4434 20.3555C16.8804 20.7117 16.2808 21.0131 15.6484 21.249L14.7334 19.4473C15.3751 19.2267 15.9784 18.9273 16.5322 18.5586L17.4434 20.3555ZM20.874 16.5176C20.5625 17.116 20.1943 17.6777 19.7764 18.1943L18.0889 17.0898C18.5208 16.5839 18.8878 16.022 19.1855 15.4111H19.1865L20.874 16.5176ZM15.6885 9.60449L13.9248 11.3984C13.9735 11.5721 14.0019 11.7551 14.002 11.9443C14.0017 13.058 13.0991 13.9609 11.9854 13.9609C10.8717 13.9609 9.96901 13.0579 9.96875 11.9443C9.96883 10.8306 10.8716 9.92782 11.9854 9.92773C12.1606 9.92773 12.3301 9.95118 12.4922 9.99316L14.2568 8.19824L15.6885 9.60449ZM21.9648 10.9551C21.9988 11.2928 22.0176 11.6354 22.0176 11.9824C22.0176 12.3124 22.0021 12.6377 21.9697 12.96L19.9531 12.9512C19.9917 12.6335 20.0117 12.3109 20.0117 11.9824C20.0117 11.6307 19.9891 11.2847 19.9443 10.9453L21.9648 10.9551ZM19.8584 5.91309C20.2795 6.4283 20.6497 6.98686 20.9629 7.58691L19.2637 8.6748C18.963 8.06568 18.5901 7.50569 18.1553 7.00293L19.8564 5.91309H19.8584ZM15.5605 2.73535C16.196 2.96211 16.8005 3.25451 17.3682 3.60156L16.4922 5.41797C15.9338 5.05704 15.3273 4.76756 14.6826 4.55469L15.5605 2.73535Z" fill="currentColor"/>
</svg>
