<svg width="24" height="24" viewBox="0 0 24 24" fill="none" xmlns="http://www.w3.org/2000/svg">
<path d="M16.2884 0C16.6982 2.4586 14.1312 4.32197 12.6961 5.1575C12.2727 5.40396 11.795 5.09012 11.868 4.60571C12.1133 2.97708 13.0101 9.45282e-05 16.2884 0Z" fill="currentColor"/>
<path d="M8.39103 5.07692C9.40276 5.07692 10.2983 5.3019 10.9797 5.55092C11.8392 5.86503 12.8403 5.86502 13.6998 5.55091C14.3812 5.30189 15.2767 5.07692 16.2884 5.07692C17.5128 5.07692 19.0694 5.74131 20.2371 7.07008C16.2885 10.1538 17.4167 15.2308 21.1048 16.5751C19.9273 19.8104 17.689 22 15.7243 22C14.032 22 14.0321 21.2103 12.3397 21.2103C10.6474 21.2103 10.6474 22 8.95513 22C6.13462 22 2.75 17.4872 2.75 11.8462C2.75 7.33333 6.13462 5.07692 8.39103 5.07692Z" fill="currentColor"/>
</svg>
