<svg width="24" height="24" viewBox="0 0 24 24" fill="none" xmlns="http://www.w3.org/2000/svg">
<path fill-rule="evenodd" clip-rule="evenodd" d="M16.3943 13.2732C16.3943 14.2691 17.2017 15.0759 18.197 15.0759C19.1919 15.0755 19.9988 14.2689 19.9988 13.2732V11.9998C19.9987 7.58062 16.4166 3.99878 11.9988 3.99878C7.58113 3.99899 3.99985 7.58076 3.99976 11.9998C3.99976 16.4188 7.58107 20.0005 11.9988 20.0007C13.6446 20.0007 15.1729 19.5049 16.4421 18.655L17.5554 20.3162C15.9669 21.3799 14.0531 22.0007 11.9988 22.0007C6.47614 22.0005 1.99976 17.523 1.99976 11.9998C1.99985 6.47655 6.4762 1.99899 11.9988 1.99878C17.5215 1.99878 21.9987 6.47642 21.9988 11.9998V13.2732C21.9988 15.3731 20.2969 17.0755 18.197 17.0759C16.9143 17.0759 15.7803 16.4404 15.0916 15.4675C14.2973 16.2545 13.2051 16.741 11.9988 16.741C9.57156 16.7408 7.60426 14.7727 7.60425 12.3455V11.6648C7.60438 9.23764 9.57164 7.26948 11.9988 7.26929C12.8826 7.26929 13.7051 7.53122 14.3943 7.98022V6.99976H16.3943V13.2732ZM11.9988 9.26929C10.6766 9.26948 9.60438 10.3418 9.60425 11.6648V12.3455C9.60426 13.6685 10.6765 14.7408 11.9988 14.741C13.3212 14.741 14.3943 13.6686 14.3943 12.3455V11.6648C14.3942 10.3417 13.3212 9.26929 11.9988 9.26929Z" fill="currentColor"/>
</svg>
