<svg width="24" height="24" viewBox="0 0 24 24" fill="none" xmlns="http://www.w3.org/2000/svg">
<path d="M18.8193 6.68974C18.8193 8.15264 17.6334 9.33855 16.1705 9.33855C14.7076 9.33855 13.5217 8.15264 13.5217 6.68974C13.5217 5.22685 14.7076 4.04094 16.1705 4.04094C17.6334 4.04094 18.8193 5.22685 18.8193 6.68974Z" fill="currentColor"/>
<path d="M11.708 2.55396C12.5119 2.55402 13.3377 2.72385 14.1162 3.04321C12.8442 3.76135 11.9854 5.12481 11.9854 6.6897C11.9854 9.00134 13.8593 10.8752 16.1709 10.8752C16.8207 10.8752 17.4357 10.7265 17.9844 10.4622L17.9785 13.7288L19.7471 15.3459V19.4856H13.6865C13.254 20.1158 12.528 20.5294 11.7061 20.5295C10.8843 20.5294 10.1595 20.1156 9.72656 19.4856H3.64453V15.345L5.41699 13.7258L5.42773 8.62622C5.42921 4.85317 8.73251 2.55596 11.708 2.55396Z" fill="currentColor"/>
</svg>
