<svg width="24" height="24" viewBox="0 0 24 24" fill="none" xmlns="http://www.w3.org/2000/svg">
<path d="M11.9988 2.005C17.5215 2.005 21.9987 6.48264 21.9988 12.006C21.9988 17.5294 17.5216 22.007 11.9988 22.007C10.4677 22.0069 9.01553 21.6617 7.71655 21.045L2.04272 21.9689L2.96167 16.2892C2.34543 14.9899 1.99976 13.5367 1.99976 12.006C1.99985 6.48278 6.4762 2.00522 11.9988 2.005ZM11.9958 15.1583C11.3449 15.1585 10.8171 15.6859 10.8171 16.337C10.8172 16.9882 11.3449 17.5156 11.9958 17.5157C12.6469 17.5157 13.1755 16.9883 13.1755 16.337C13.1755 15.6858 12.647 15.1583 11.9958 15.1583ZM12.0007 6.4845C10.1827 6.48468 8.50366 7.81939 8.50366 9.70422H10.5037C10.5037 9.13833 11.06 8.48467 12.0007 8.4845C12.9415 8.48464 13.4968 9.13832 13.4968 9.70422C13.4966 10.2235 13.2686 10.6424 13.155 10.8048L13.1541 10.8068C12.9478 11.1025 12.6787 11.3232 12.4089 11.4874C11.53 12.0225 11.0011 12.9758 10.9988 13.9972L12.9988 14.0011C12.9997 13.6683 13.1718 13.3653 13.449 13.1964V13.1954C13.8883 12.928 14.3892 12.5318 14.7937 11.9523C15.0473 11.5899 15.4966 10.7736 15.4968 9.70422C15.4968 7.81937 13.8188 6.48465 12.0007 6.4845Z" fill="currentColor"/>
</svg>
