<svg width="24" height="24" viewBox="0 0 24 24" fill="none" xmlns="http://www.w3.org/2000/svg">
<path fill-rule="evenodd" clip-rule="evenodd" d="M11.999 1.99884C17.5218 1.99884 21.9989 6.47648 21.999 11.9998C21.999 17.5232 17.5218 22.0008 11.999 22.0008C10.468 22.0007 9.01578 21.6556 7.7168 21.0389L2.04297 21.9627L2.96191 16.283C2.34568 14.9838 2 13.5305 2 11.9998C2.0001 6.47661 6.47644 1.99906 11.999 1.99884ZM15.999 10.824C15.3481 10.8242 14.8205 11.3517 14.8203 12.0027C14.8203 12.6539 15.348 13.1823 15.999 13.1824C16.6501 13.1824 17.1777 12.654 17.1777 12.0027C17.1776 11.3517 16.65 10.824 15.999 10.824ZM8 10.8182C7.3489 10.8182 6.8213 11.3457 6.82129 11.9969C6.82129 12.6481 7.34889 13.1756 8 13.1756C8.65099 13.1755 9.17871 12.648 9.17871 11.9969C9.1787 11.3458 8.65098 10.8183 8 10.8182ZM11.999 10.8182C11.3481 10.8184 10.8203 11.3458 10.8203 11.9969C10.8203 12.648 11.3481 13.1753 11.999 13.1756C12.6501 13.1756 13.1787 12.6481 13.1787 11.9969C13.1787 11.3457 12.6501 10.8182 11.999 10.8182Z" fill="currentColor"/>
</svg>
