<svg width="24" height="24" viewBox="0 0 24 24" fill="none" xmlns="http://www.w3.org/2000/svg">
<path d="M12.7637 12.3826V18.4304L14.374 16.8201L15.7881 18.2341L11.7646 22.2576L7.74121 18.2322L8.44922 17.5261L9.15625 16.8191L10.7637 18.4265V12.3826H12.7637ZM19.7646 12.9197C19.7646 11.4515 18.5736 10.2606 17.1055 10.2605C17.0554 10.2605 17.008 10.2611 16.959 10.2634L15.5342 10.3318L15.9561 8.96851C16.0532 8.6547 16.1055 8.31607 16.1055 7.95972C16.1054 6.03188 14.542 4.46948 12.6133 4.46948C10.7916 4.46951 9.29549 5.86426 9.1377 7.64331L9.04004 8.74292L7.95508 8.53784C7.75297 8.49951 7.54025 8.48025 7.31543 8.48022C5.3548 8.48022 3.76471 10.0694 3.76465 12.03C3.76465 13.3761 4.51611 14.5489 5.62598 15.1511H6.83789V17.1511H5.16211L4.96094 17.0564C3.07529 16.1717 1.76465 14.2545 1.76465 12.03C1.76471 8.96484 4.25023 6.48022 7.31543 6.48022C7.31869 6.48022 7.32194 6.48022 7.3252 6.48022C7.97054 4.16529 10.094 2.4695 12.6133 2.46948C15.6457 2.46948 18.1054 4.92642 18.1055 7.95972C18.1055 8.09564 18.0996 8.23086 18.0898 8.36499C20.1899 8.81703 21.7646 10.6847 21.7646 12.9197C21.7646 14.7016 20.7635 16.2512 19.2959 17.0339L19.0762 17.1511H16.9346V15.1511H18.5518C19.2828 14.676 19.7646 13.8536 19.7646 12.9197Z" fill="currentColor"/>
</svg>
