<svg width="24" height="24" viewBox="0 0 24 24" fill="none" xmlns="http://www.w3.org/2000/svg">
<path d="M22 10H21C19.8954 10.0002 19.001 10.8947 19.001 12C19.001 13.1054 19.8954 13.9998 21 14H22V20.001H2.03711V14.0098L3.02539 13.999C4.11735 13.9867 5.00098 13.0964 5.00098 12C5.00094 10.9037 4.11733 10.0133 3.02539 10.001L2.03711 9.99023V3.94824H22V10ZM14.4834 13.2783C13.8325 13.2784 13.3048 13.806 13.3047 14.457C13.3047 15.1082 13.8324 15.6366 14.4834 15.6367C15.1345 15.6367 15.6621 15.1083 15.6621 14.457C15.662 13.8059 15.1344 13.2783 14.4834 13.2783ZM8.46973 14.4707L9.53027 15.5312L15.5303 9.53027L14.4688 8.46973L8.46973 14.4707ZM9.39648 8.42871C8.74563 8.42883 8.21802 8.95647 8.21777 9.60742C8.21777 10.2586 8.74548 10.787 9.39648 10.7871C10.0476 10.7871 10.5752 10.2587 10.5752 9.60742C10.575 8.9564 10.0474 8.42871 9.39648 8.42871Z" fill="currentColor"/>
</svg>
