<svg width="24" height="24" viewBox="0 0 24 24" fill="none" xmlns="http://www.w3.org/2000/svg">
<path fill-rule="evenodd" clip-rule="evenodd" d="M22 19.9644H2V4.03552H22V19.9644ZM8.52055 9.02527C7.09938 9.02546 5.57024 9.99134 5.57024 12.1123C5.57037 13.5999 6.47104 15.2002 8.44831 15.2002C9.17131 15.2002 9.8744 14.8955 10.4321 14.3362C10.588 14.1726 10.7196 13.9906 10.8246 13.7915C11.0393 13.3867 11.084 13.028 11.1165 12.7654C11.1474 12.5244 11.153 12.2755 11.136 12.0283L11.1135 11.669H8.05487V13.0221L9.64717 13.0075C9.44788 13.7398 8.76932 13.8286 8.45416 13.8286C7.41797 13.8283 7.05038 12.9046 7.05028 12.1123C7.05028 11.2596 7.50431 10.3972 8.52055 10.3969C9.27909 10.3969 9.54224 10.8069 9.57005 10.8548L9.68134 11.0432L11.0267 11.055L11.0218 11.0364C10.8394 10.3336 10.3961 9.71458 9.76433 9.35623C9.42292 9.16313 9.00717 9.02527 8.52055 9.02527ZM14.3226 9.1063V15.0352H15.8045V12.7097H18.0705V11.3439H15.8045V10.478H18.2804V9.1063H14.3226ZM11.8653 15.0089H13.3453V9.07994H11.8653V15.0089Z" fill="currentColor"/>
</svg>
