<svg width="24" height="24" viewBox="0 0 24 24" fill="none" xmlns="http://www.w3.org/2000/svg">
<path d="M17.232 15.0748C19.7138 15.0748 21.7849 17.0424 21.7849 19.5414V20.544H8.41203V19.5414C8.41203 17.0445 10.4811 15.0749 12.965 15.0748H17.232ZM18.537 10.9636C18.537 12.8434 17.0229 14.3679 15.1558 14.3679C13.289 14.3676 11.7757 12.8432 11.7757 10.9636C11.7759 9.08412 13.2892 7.56051 15.1558 7.56025C17.0227 7.56025 18.5368 9.08396 18.537 10.9636ZM12.0616 6.94734C12.0616 8.82707 10.5483 10.3515 8.6814 10.3516C6.81437 10.3516 5.30025 8.82715 5.30025 6.94734C5.30045 5.06769 6.8145 3.54401 8.6814 3.54401C10.5482 3.54414 12.0614 5.06778 12.0616 6.94734Z" fill="currentColor"/>
<path d="M9.7998 14.4581C8.97211 14.9589 8.27146 15.6509 7.76758 16.4786L1.78516 16.5137V15.5079C1.78529 13.0224 3.8549 11.0615 6.34277 11.0538H9.7998V14.4581Z" fill="currentColor"/>
</svg>
