<svg width="24" height="24" viewBox="0 0 24 24" fill="none" xmlns="http://www.w3.org/2000/svg">
<path d="M15.8374 2.99855C17.3741 3.01346 18.7752 3.66742 19.7905 4.68312C20.8057 5.69874 21.4591 7.09962 21.4741 8.63625C21.4893 10.1883 20.8524 11.7944 19.4409 13.2066L18.7339 13.9136L18.732 13.9126L11.9624 20.6831L4.4966 13.2163C3.09081 11.8107 2.46194 10.2082 2.48293 8.65871C2.5038 7.12509 3.161 5.72584 4.17629 4.71046C5.19155 3.69528 6.58994 3.03785 8.12355 3.0171C9.41903 2.99959 10.7504 3.43835 11.9741 4.40382C13.203 3.43108 14.5387 2.98597 15.8374 2.99855Z" fill="currentColor"/>
</svg>
