<svg width="24" height="24" viewBox="0 0 24 24" fill="none" xmlns="http://www.w3.org/2000/svg">
<path d="M11.999 2.00342C17.5226 2.00342 22 6.48219 22 12.0063C21.9999 17.5304 17.5225 22.0093 11.999 22.0093C6.47554 22.0093 1.99817 17.5304 1.99805 12.0063C1.99805 6.48219 6.47546 2.00342 11.999 2.00342ZM11 17.0962H13V10.5366H11V17.0962ZM11.999 6.91553C11.3479 6.91556 10.8203 7.444 10.8203 8.09521C10.8204 8.74636 11.348 9.27389 11.999 9.27393C12.6501 9.27393 13.1776 8.74638 13.1777 8.09521C13.1777 7.44398 12.6501 6.91553 11.999 6.91553Z" fill="currentColor"/>
</svg>
