<svg width="24" height="24" viewBox="0 0 24 24" fill="none" xmlns="http://www.w3.org/2000/svg">
<path fill-rule="evenodd" clip-rule="evenodd" d="M21.0049 16.0234C21.0049 18.7756 18.7745 21.0068 16.0225 21.0068H7.98242C5.23049 21.0066 3 18.7755 3 16.0234V7.98242C3.00007 5.23045 5.23054 2.99921 7.98242 2.99902H16.0225C18.7745 2.99907 21.0048 5.23036 21.0049 7.98242V16.0234ZM11.975 16.7058C14.5821 16.7057 16.6947 14.5913 16.6947 11.9842C16.6945 9.37721 14.5819 7.2636 11.975 7.26346C9.36793 7.26346 7.25453 9.37713 7.25429 11.9842C7.25429 14.5914 9.36778 16.7058 11.975 16.7058ZM14.6947 11.9842C14.6945 10.4814 13.477 9.2636 11.975 9.26346C10.4729 9.26346 9.25453 10.4813 9.25429 11.9842C9.25429 13.4872 10.4727 14.7058 11.975 14.7058C13.4771 14.7057 14.6947 13.4871 14.6947 11.9842ZM16.7383 8.12146C17.1917 8.12146 17.5592 7.75385 17.5592 7.30037C17.5592 6.84689 17.1917 6.47928 16.7383 6.47928C16.2849 6.47928 15.9174 6.84689 15.9174 7.30037C15.9174 7.75385 16.2849 8.12146 16.7383 8.12146Z" fill="currentColor"/>
<path fill-rule="evenodd" clip-rule="evenodd" d="M11.975 9.26346C13.477 9.2636 14.6945 10.4814 14.6947 11.9842C14.6947 13.4871 13.4771 14.7057 11.975 14.7058C10.4727 14.7058 9.25429 13.4872 9.25429 11.9842C9.25453 10.4813 10.4729 9.26346 11.975 9.26346Z" fill="currentColor"/>
</svg>
