<svg width="24" height="24" viewBox="0 0 24 24" fill="none" xmlns="http://www.w3.org/2000/svg">
<path d="M8.28418 11.1172L6.34277 13.0576C5.07151 14.3279 5.07084 16.3906 6.3418 17.6621C7.61186 18.9335 9.67425 18.9354 10.9453 17.6641L12.8867 15.7236L14.3008 17.1387L12.3594 19.0781C10.3066 21.1311 6.97742 21.1291 4.92676 19.0762C2.87471 17.0231 2.87643 13.6934 4.92871 11.6426L6.87012 9.70312L8.28418 11.1172ZM16.2441 9.17773L9.17188 16.248L7.75781 14.834L14.8301 7.76367L16.2441 9.17773ZM11.6406 4.93457C13.6931 2.88174 17.0215 2.88334 19.0723 4.93555C21.1247 6.98846 21.1233 10.3181 19.0713 12.3691L17.1299 14.3096L15.7158 12.8945L17.6572 10.9551C18.8889 9.72436 18.9279 7.74983 17.7734 6.47168L17.6582 6.34961C16.4277 5.11774 14.4536 5.07848 13.1758 6.2334L13.0547 6.34863L11.1133 8.28906L9.69922 6.87402L11.6406 4.93457Z" fill="currentColor"/>
</svg>
