<svg width="24" height="24" viewBox="0 0 24 24" fill="none" xmlns="http://www.w3.org/2000/svg">
<path d="M11.8936 2.00635C16.2774 2.00648 19.83 5.5596 19.8301 9.94385C19.8301 10.675 19.7457 11.3175 19.5596 12.0034L19.4736 12.3003C18.9157 14.1115 17.3918 17.7565 12.6982 21.479L12.1016 21.9526L11.4863 21.5024C9.01587 19.6956 5.86339 16.7691 4.45312 12.7271L4.32227 12.3325C4.06938 11.528 3.95703 10.792 3.95703 9.94385C3.9571 5.55952 7.50958 2.00635 11.8936 2.00635ZM11.998 7.14014C10.4666 7.14014 9.22461 8.38181 9.22461 9.91357C9.22484 11.4451 10.4667 12.687 11.998 12.687C13.5292 12.6868 14.7703 11.445 14.7705 9.91357C14.7705 8.38197 13.5293 7.14039 11.998 7.14014Z" fill="currentColor"/>
</svg>
