<svg width="24" height="24" viewBox="0 0 24 24" fill="none" xmlns="http://www.w3.org/2000/svg">
<path d="M11.9993 13.1791C12.6504 13.1791 13.1782 12.6512 13.1782 12C13.1782 11.3487 12.6504 10.8208 11.9993 10.8208C11.3482 10.8208 10.8203 11.3487 10.8203 12C10.8203 12.6512 11.3482 13.1791 11.9993 13.1791Z" fill="currentColor"/>
<path d="M5.17869 13.1791C5.8298 13.1791 6.35763 12.6512 6.35763 12C6.35763 11.3487 5.8298 10.8208 5.17869 10.8208C4.52758 10.8208 3.99976 11.3487 3.99976 12C3.99976 12.6512 4.52758 13.1791 5.17869 13.1791Z" fill="currentColor"/>
<path d="M18.8198 13.1853C19.4709 13.1853 19.9987 12.6574 19.9987 12.0061C19.9987 11.3549 19.4709 10.827 18.8198 10.827C18.1687 10.827 17.6409 11.3549 17.6409 12.0061C17.6409 12.6574 18.1687 13.1853 18.8198 13.1853Z" fill="currentColor"/>
</svg>
