<svg width="24" height="24" viewBox="0 0 24 24" fill="none" xmlns="http://www.w3.org/2000/svg">
<path fill-rule="evenodd" clip-rule="evenodd" d="M19.7949 10.0017L19.7832 11.8257L18.0723 11.8149L18.0703 12.9988H19.7646L19.7578 14.6987L18.0664 14.6929L18.0645 15.6899C18.3891 15.8166 18.6951 16.0068 18.9629 16.2622C20.0629 17.3116 20.1039 19.0547 19.0547 20.1548C18.0053 21.2546 16.2622 21.2957 15.1621 20.2466C14.0621 19.1973 14.0213 17.4542 15.0703 16.354C15.3583 16.0521 15.6996 15.8317 16.0645 15.6899L16.0771 10.0017H19.7949ZM17.582 17.7095C17.2811 17.4225 16.8045 17.434 16.5176 17.7349C16.2309 18.0358 16.2422 18.5125 16.543 18.7993C16.8438 19.086 17.3205 19.0745 17.6074 18.7739C17.8943 18.473 17.8828 17.9964 17.582 17.7095Z" fill="currentColor"/>
<path d="M14.9258 13.7544C15.0388 13.7545 15.0732 13.9352 14.9717 13.9849C14.4804 14.2252 14.0226 14.5553 13.623 14.9741C12.1003 16.571 11.9082 18.9519 13.0146 20.7466L2.76562 20.7505V19.7505C2.76562 16.4376 5.45369 13.7495 8.7666 13.7495L14.9258 13.7544Z" fill="currentColor"/>
<path d="M11.7656 2.75049C14.2506 2.75076 16.2656 4.7655 16.2656 7.25049C16.2655 9.73538 14.2505 11.7502 11.7656 11.7505C9.28054 11.7505 7.26575 9.73554 7.26562 7.25049C7.26562 4.76533 9.28047 2.75049 11.7656 2.75049Z" fill="currentColor"/>
</svg>
