<svg width="24" height="24" viewBox="0 0 24 24" fill="none" xmlns="http://www.w3.org/2000/svg">
<path d="M11.999 2.00488C17.5217 2.00488 21.9989 6.48264 21.999 12.0059C21.999 17.5292 17.5217 22.0068 11.999 22.0068C6.4765 22.0066 2 17.529 2 12.0059C2.0001 6.48277 6.47656 2.0051 11.999 2.00488ZM7.0918 18.3223C8.44688 19.377 10.149 20.0067 11.999 20.0068C16.4168 20.0068 19.999 16.425 19.999 12.0059C19.999 10.1557 19.3688 8.45389 18.3145 7.09863L7.0918 18.3223ZM11.999 4.00488C7.58149 4.0051 4.0001 7.58698 4 12.0059C4 13.8532 4.62747 15.553 5.67871 16.9072L16.9004 5.68457C15.5461 4.63271 13.8462 4.00488 11.999 4.00488Z" fill="currentColor"/>
</svg>
