<svg width="24" height="24" viewBox="0 0 24 24" fill="none" xmlns="http://www.w3.org/2000/svg">
<path d="M12.002 9.771C13.2358 9.77102 14.2363 10.7718 14.2363 12.0063C14.2361 13.2407 13.2356 14.2407 12.002 14.2407C10.7683 14.2407 9.76778 13.2407 9.76758 12.0063C9.76758 10.7718 10.7681 9.771 12.002 9.771Z" fill="currentColor"/>
<path fill-rule="evenodd" clip-rule="evenodd" d="M21 21.0024H3.00391V3.00342H21V21.0024ZM14.1836 8.37646C13.5464 7.99246 12.8001 7.771 12.002 7.771C11.1809 7.771 10.4146 8.00509 9.76562 8.40967L8.41992 7.06885L7.00781 8.48486L8.36426 9.8374C7.98531 10.4719 7.76758 11.2137 7.76758 12.0063C7.76765 12.8073 7.99053 13.5561 8.37695 14.1948L6.94238 15.6362L8.3584 17.0483L9.78711 15.6147C10.4316 16.0112 11.1898 16.2407 12.002 16.2407C12.7983 16.2407 13.5425 16.0195 14.1787 15.6372L15.5811 17.0356L16.9941 15.6196L15.6025 14.2319C16.0032 13.585 16.2363 12.8232 16.2363 12.0063C16.2363 11.1906 16.005 10.4291 15.6055 9.78271L16.9844 8.3999L15.5674 6.98779L14.1836 8.37646Z" fill="currentColor"/>
</svg>
