<svg width="24" height="24" viewBox="0 0 24 24" fill="none" xmlns="http://www.w3.org/2000/svg">
<path fill-rule="evenodd" clip-rule="evenodd" d="M11.8975 10.094C13.0661 10.094 13.9746 11.0137 13.9746 12.0999C13.9745 13.186 13.0661 14.1057 11.8975 14.1057C10.7291 14.1055 9.82136 13.1858 9.82129 12.0999C9.82129 11.0138 10.729 10.0942 11.8975 10.094ZM11.8975 16.1057C14.1268 16.1057 15.9745 14.3339 15.9746 12.0999C15.9746 9.86573 14.1268 8.09399 11.8975 8.09399C9.66831 8.09424 7.82129 9.86589 7.82129 12.0999C7.82136 14.3338 9.66835 16.1055 11.8975 16.1057ZM20.083 13.0979C20.1341 12.7362 20.1631 12.3679 20.1631 11.9944C20.1631 11.6211 20.1336 11.2536 20.083 10.8928L22.3799 9.5979L19.3154 4.41138L17.0303 5.69946C16.4306 5.23853 15.7645 4.85799 15.0469 4.57446V1.99536H8.95312V4.57446C8.2353 4.85808 7.56858 5.23832 6.96875 5.69946L4.68457 4.41138L1.62012 9.5979L3.91602 10.8928C3.8654 11.2536 3.83693 11.6211 3.83691 11.9944C3.83691 12.3679 3.86496 12.7363 3.91602 13.0979L1.62012 14.3928L4.68457 19.5803L6.96777 18.2903C7.56765 18.7516 8.23485 19.1311 8.95312 19.4143V21.9944H15.0469V19.4143C15.7649 19.1311 16.4315 18.7514 17.0312 18.2903L19.3154 19.5803L22.3799 14.3928L20.083 13.0979Z" fill="currentColor"/>
</svg>
