<svg width="24" height="24" viewBox="0 0 24 24" fill="none" xmlns="http://www.w3.org/2000/svg">
<path d="M12 1.99902C14.609 1.99907 17.0252 2.37741 19.3613 3.28516L19.999 3.53223V12.0078C19.999 15.4243 18.0024 17.9257 16.1504 19.5127C15.2153 20.3139 14.284 20.9114 13.5889 21.3086C13.2403 21.5077 12.9483 21.6588 12.7402 21.7607C12.6363 21.8116 12.553 21.85 12.4941 21.877C12.4647 21.8904 12.4407 21.9007 12.4238 21.9082C12.4156 21.9118 12.4094 21.9158 12.4043 21.918C12.4018 21.919 12.3975 21.9199 12.3975 21.9199L12.3936 21.9219L12 22.0908L11.6055 21.9219L11.6016 21.9199C11.6016 21.9199 11.5979 21.9189 11.5957 21.918C11.5906 21.9157 11.5836 21.9119 11.5752 21.9082C11.5583 21.9007 11.5343 21.8904 11.5049 21.877C11.446 21.85 11.3627 21.8116 11.2588 21.7607C11.0508 21.6588 10.7587 21.5077 10.4102 21.3086C9.71501 20.9114 8.78369 20.3139 7.84863 19.5127C5.99665 17.9257 4 15.4242 4 12.0078V3.53223L4.63867 3.28418C6.9741 2.37839 9.39045 1.99902 12 1.99902ZM11.1631 11.8145L9.24219 9.89355L7.82812 11.3076L11.1631 14.6436L16.4795 9.32617L15.0654 7.91211L11.1631 11.8145Z" fill="currentColor"/>
</svg>
