<svg width="24" height="24" viewBox="0 0 24 24" fill="none" xmlns="http://www.w3.org/2000/svg">
<path d="M12.3936 21.9224L12 22.0913L11.6055 21.9224L12 21.0034L12.3936 21.9224ZM6 12.0083C6 14.5863 7.50268 16.5828 9.15039 17.9946C9.79834 18.5498 10.4502 18.9953 11 19.3325V4.021C9.22588 4.09667 7.58054 4.38113 6 4.91846V12.0083ZM19.999 12.0083C19.999 15.4248 18.0024 17.9262 16.1504 19.5132C15.2153 20.3144 14.284 20.9119 13.5889 21.3091C13.2403 21.5082 12.9483 21.6593 12.7402 21.7612C12.6363 21.8121 12.553 21.8505 12.4941 21.8774C12.4647 21.8909 12.4407 21.9012 12.4238 21.9087C12.4156 21.9123 12.4094 21.9163 12.4043 21.9185C12.4018 21.9195 12.3975 21.9204 12.3975 21.9204L12.3955 21.9214L12.3936 21.9224L12 21.0034L11.6055 21.9224L11.6035 21.9214L11.6016 21.9204C11.6016 21.9204 11.5979 21.9194 11.5957 21.9185C11.5906 21.9162 11.5836 21.9124 11.5752 21.9087C11.5583 21.9012 11.5343 21.8909 11.5049 21.8774C11.446 21.8505 11.3627 21.8121 11.2588 21.7612C11.0508 21.6593 10.7587 21.5082 10.4102 21.3091C9.71501 20.9119 8.78369 20.3144 7.84863 19.5132C5.99665 17.9262 4 15.4247 4 12.0083V3.53271L4.63867 3.28467C6.9741 2.37887 9.39045 1.99951 12 1.99951C14.609 1.99956 17.0252 2.3779 19.3613 3.28564L19.999 3.53271V12.0083Z" fill="currentColor"/>
</svg>
