<svg fill="none" height="24" width="24" xmlns="http://www.w3.org/2000/svg"><clipPath id="a"><path d="M0 0h24v24H0z"/></clipPath><g clip-path="url(#a)" fill="#1f1f1f"><path d="M16 8l.006.432c.059 2.105.555 3.41 1.365 4.214.811.806 2.119 1.29 4.202 1.348L22 14v2c-2.328 0-3.76.505-4.627 1.373C16.505 18.241 16 19.673 16 22h-2l-.006-.426c-.059-2.077-.558-3.386-1.373-4.2C11.751 16.506 10.32 16 8 16v-2l.426-.006c2.076-.057 3.385-.542 4.198-1.348C13.49 11.786 14 10.359 14 8zM8.276 4.733C7.82 4.28 7.5 3.477 7.5 2h-2c0 1.475-.32 2.279-.78 2.733C4.26 5.19 3.456 5.5 2 5.5v2c1.449 0 2.256.317 2.719.78.462.46.781 1.268.781 2.72h2c0-1.454.317-2.26.778-2.722S9.546 7.5 11 7.5v-2c-1.461 0-2.265-.311-2.724-.767z"/></g></svg>