<svg width="24" height="24" viewBox="0 0 24 24" fill="none" xmlns="http://www.w3.org/2000/svg">
<path d="M16 8L16.0059 8.43164C16.0647 10.5367 16.5612 11.8419 17.3711 12.6465C18.1823 13.4524 19.4895 13.9368 21.5732 13.9941L22 14V16C19.6725 16 18.2407 16.5054 17.373 17.373C16.5054 18.2407 16 19.6725 16 22H14L13.9941 21.5742C13.935 19.4974 13.4364 18.188 12.6211 17.374C11.751 16.5056 10.319 16 8 16V14L8.42578 13.9941C10.5025 13.9367 11.8107 13.4522 12.624 12.6455C13.4897 11.7866 14 10.3586 14 8H16Z" fill="currentColor"/>
<path d="M8.27637 4.7334C7.81921 4.27922 7.5 3.47681 7.5 2H5.5C5.5 3.47515 5.17922 4.27861 4.7207 4.7334C4.26047 5.18968 3.45512 5.5 2 5.5V7.5C3.44875 7.5 4.25611 7.81741 4.71875 8.2793C5.18094 8.7409 5.5 9.54755 5.5 11H7.5C7.5 9.54564 7.81737 8.73927 8.27832 8.27832C8.73927 7.81737 9.54564 7.5 11 7.5V5.5C9.53901 5.5 8.73486 5.18888 8.27637 4.7334Z" fill="currentColor"/>
</svg>
