<svg width="24" height="24" viewBox="0 0 24 24" fill="none" xmlns="http://www.w3.org/2000/svg">
<path d="M22 10H21C19.8954 10.0002 19.001 10.8947 19.001 12C19.001 13.1054 19.8954 13.9998 21 14H22V20.001H2.03711V14.0098L3.02539 13.999C4.11735 13.9867 5.00098 13.0964 5.00098 12C5.00094 10.9037 4.11733 10.0133 3.02539 10.001L2.03711 9.99023V3.94824H22V10ZM4.03711 8.13672C5.74309 8.59276 7.00094 10.1487 7.00098 12C7.00098 13.8514 5.74322 15.4083 4.03711 15.8643V18.001H20V15.874C18.2748 15.4299 17.001 13.8642 17.001 12C17.001 10.1358 18.2748 8.57009 20 8.12598V5.94824H4.03711V8.13672ZM14.4834 13.2783C15.1344 13.2783 15.662 13.8059 15.6621 14.457C15.6621 15.1083 15.1345 15.6367 14.4834 15.6367C13.8324 15.6366 13.3047 15.1082 13.3047 14.457C13.3048 13.806 13.8325 13.2784 14.4834 13.2783ZM15.5303 9.53027L9.53027 15.5312L8.46973 14.4707L14.4688 8.46973L15.5303 9.53027ZM9.39648 8.42871C10.0474 8.42871 10.575 8.9564 10.5752 9.60742C10.5752 10.2587 10.0476 10.7871 9.39648 10.7871C8.74548 10.787 8.21777 10.2586 8.21777 9.60742C8.21802 8.95647 8.74563 8.42883 9.39648 8.42871Z" fill="currentColor"/>
</svg>
