<svg width="24" height="24" viewBox="0 0 24 24" fill="none" xmlns="http://www.w3.org/2000/svg">
<path d="M13.4697 5.37378C13.4696 4.59693 12.8786 3.95845 12.123 3.88159L11.9697 3.87378H11.9678L11.8145 3.88159C11.0592 3.95916 10.4699 4.59744 10.4697 5.37378V9.06812L3.96875 12.2488V12.9939L10.4717 12.9919V17.1677L8.27832 19.9861H15.7236L13.4404 17.0457V13.0037H20.0186L20.0225 12.2576L13.4697 9.17261V5.37378ZM15.4697 7.90308L22.0293 10.9919L22.0078 15.0037H15.4404V16.3591L18.002 19.6599L17.9883 21.9861H5.95312L5.97754 20.9626L6.00781 19.6462L8.47168 16.4812V14.9929L1.96875 14.9949V11.0007L8.46973 7.81909V5.37378C8.4699 3.44261 10.0342 1.87594 11.9658 1.87378H11.9697L12.1494 1.87866C13.9975 1.97223 15.4696 3.50041 15.4697 5.37378V7.90308Z" fill="currentColor"/>
</svg>
