<svg width="24" height="24" viewBox="0 0 24 24" fill="none" xmlns="http://www.w3.org/2000/svg">
<path d="M11.9992 13.1854C12.6504 13.1854 13.1782 12.6574 13.1782 12.0062C13.1782 11.355 12.6504 10.827 11.9992 10.827C11.3481 10.827 10.8203 11.355 10.8203 12.0062C10.8203 12.6574 11.3481 13.1854 11.9992 13.1854Z" fill="currentColor"/>
<path d="M2 11.9723C2 9.22868 3.11305 6.7424 4.91016 4.94495L6.32422 6.35901C4.88699 7.79653 4 9.78009 4 11.9723C4.00002 14.1889 4.90758 16.1927 6.375 17.6344L4.97363 19.0612C3.13891 17.2587 2.00002 14.747 2 11.9723Z" fill="currentColor"/>
<path d="M6.26172 11.9186C6.26172 10.3424 6.79806 8.88989 7.69434 7.73499L9.27344 8.96155C8.6391 9.77906 8.26172 10.8032 8.26172 11.9186C8.26181 13.0392 8.64398 14.0693 9.28418 14.8873L7.70898 16.1198C6.80315 14.9624 6.26181 13.5017 6.26172 11.9186Z" fill="currentColor"/>
<path d="M20.0879 11.9785C20.0879 9.76011 19.2021 7.80392 17.7637 6.36517L19.1787 4.95111C20.9745 6.74733 22.0879 9.20551 22.0879 11.9785C22.0879 14.753 20.9498 17.2649 19.1152 19.0673L17.7129 17.6406C19.1804 16.1988 20.0879 14.1951 20.0879 11.9785Z" fill="currentColor"/>
<path d="M15.7817 11.9183C15.7817 10.8166 15.3849 9.73131 14.7271 8.90753L16.2896 7.65948C17.2242 8.82978 17.7817 10.353 17.7817 11.9183C17.7817 13.4793 17.257 14.921 16.3726 16.0716L14.7866 14.8528C15.4113 14.0403 15.7817 13.0242 15.7817 11.9183Z" fill="currentColor"/>
</svg>
