<svg width="24" height="24" viewBox="0 0 24 24" fill="none" xmlns="http://www.w3.org/2000/svg">
<path d="M16.9863 1.83594C17.2369 3.33986 16.5568 4.59036 15.7725 5.48438C15.7656 5.49216 15.7578 5.49909 15.751 5.50684C15.8331 5.50396 15.9161 5.5 16 5.5C17.4081 5.50002 19.0507 6.24076 20.251 7.60645L20.9502 8.40234L20.1152 9.05469C17.1892 11.3399 18.1334 14.8486 20.6113 15.752L21.5508 16.0947L21.209 17.0332C20.6449 18.5832 19.8158 19.9172 18.8535 20.8789C17.9074 21.8245 16.7362 22.5 15.5 22.5C14.5386 22.5 14.0085 22.2579 13.5771 22.0566C13.2983 21.9265 13.0949 21.8273 12.6875 21.8047L12.5 21.7998C11.9616 21.7998 11.7414 21.908 11.4229 22.0566C10.9915 22.2579 10.4614 22.5 9.5 22.5C7.74471 22.5 6.10684 21.152 4.97559 19.4219C3.80623 17.6333 3 15.1932 3 12.5C3 7.94772 6.44772 5.5 9 5.5C9.79487 5.5 10.5138 5.63422 11.1133 5.80859L11.1455 5.62012C11.2892 4.85009 11.5858 3.82153 12.2139 2.92578C12.9664 1.85267 14.1817 1.00005 16 1H16.8467L16.9863 1.83594ZM16 7.5C15.2492 7.5 14.5736 7.66759 14.0488 7.85938C13.0653 8.2188 11.9347 8.2188 10.9512 7.85938C10.4264 7.66758 9.75076 7.5 9 7.5C7.55229 7.5 5 9.05229 5 12.5C5 14.8066 5.69385 16.8667 6.64941 18.3281C7.64313 19.8478 8.75533 20.5 9.5 20.5C10.0384 20.5 10.2586 20.3928 10.5771 20.2441C11.0086 20.0428 11.5384 19.7998 12.5 19.7998L12.8408 19.8105C13.5924 19.8597 14.0453 20.068 14.4229 20.2441C14.7414 20.3928 14.9616 20.5 15.5 20.5C16.0052 20.5 16.6974 20.2055 17.4395 19.4639C18.0055 18.8981 18.5433 18.1207 18.9814 17.1816C16.0043 15.418 15.2681 11.2024 18.0273 8.2627C17.3197 7.73888 16.5632 7.50002 16 7.5ZM14.8828 3.20996C14.4314 3.40317 14.1044 3.71367 13.8516 4.07422C13.6564 4.35258 13.5059 4.66522 13.3877 4.98242C13.6986 4.73988 14.0056 4.46683 14.2695 4.16602C14.5479 3.8487 14.7537 3.52943 14.8828 3.20996Z" fill="currentColor"/>
</svg>
