<svg width="24" height="24" viewBox="0 0 24 24" fill="none" xmlns="http://www.w3.org/2000/svg">
<path fill-rule="evenodd" clip-rule="evenodd" d="M11.8125 2.54694C14.7988 2.54726 18.0957 4.86562 18.0957 8.63971L18.0869 13.7637L19.7158 15.421V19.0547L21.4658 20.7881L20.0586 22.21L17.3135 19.4922H13.7939C13.3611 20.1247 12.6347 20.54 11.8105 20.5401C10.9863 20.5401 10.2595 20.1248 9.82617 19.4922H3.74219V15.3956L4.05957 15.0997L5.51758 13.7374L5.52832 8.62311C5.52841 8.36482 5.54535 8.1134 5.5752 7.8692L1.87988 4.21002L3.28613 2.78815L6.26953 5.74127C7.41204 3.71166 9.69493 2.54822 11.8125 2.54694ZM7.5166 14.6085L7.2002 14.9044L5.74219 16.2647V17.4922H15.2939L7.52539 9.79987L7.5166 14.6085ZM11.6133 4.55182C9.98914 4.63051 8.38589 5.65132 7.78125 7.23834L17.7158 17.0743V16.2383L16.374 14.8741L16.0859 14.5821L16.0957 8.63971L16.0898 8.41217C15.9609 6.09459 13.8687 4.54725 11.8125 4.54694L11.6133 4.55182Z" fill="currentColor"/>
</svg>
