<svg width="24" height="24" fill="none" xmlns="http://www.w3.org/2000/svg"><g clip-path="url(#clip0_220_1621)" fill-rule="evenodd" clip-rule="evenodd" fill="#1F1F1F"><path d="M12.983 8.636h4.015v2h-1.985c-.01.063-.019.13-.031.197a8.144 8.144 0 0 1-.884 2.48c-.17.303-.369.6-.595.89.84.471 1.968.794 3.498.798l-.006 2c-2.186-.006-3.806-.563-4.997-1.379-1.19.816-2.81 1.373-4.996 1.379l-.006-2c1.53-.004 2.657-.327 3.497-.798a7.09 7.09 0 0 1-.593-.89 8.143 8.143 0 0 1-.884-2.48c-.013-.068-.02-.134-.03-.197H6.999v-2h3.984V6.474h2v2.162zm-1.963 2a6.06 6.06 0 0 0 .624 1.7c.102.183.22.365.355.547.135-.182.253-.364.355-.546.336-.6.52-1.209.625-1.701h-1.96z"/><path d="M12.016 1.999c5.523 0 10 4.478 10 10.001s-4.477 10-10 10.001a9.962 9.962 0 0 1-4.282-.962l-5.674.924.919-5.68A9.972 9.972 0 0 1 2.017 12c0-5.523 4.476-10 9.999-10.001zm0 2a8 8 0 0 0-8 8.001c0 1.324.322 2.572.89 3.67l.15.293-.58 3.58 3.254-.528.326-.054.293.152A8 8 0 0 0 20.016 12a8 8 0 0 0-8-8.001z"/></g><defs><clipPath id="clip0_220_1621"><path fill="#fff" d="M0 0H24V24H0z"/></clipPath></defs></svg>