<svg width="24" height="24" viewBox="0 0 24 24" fill="none" xmlns="http://www.w3.org/2000/svg">
<path d="M12.0159 1.99902C17.5386 1.99902 22.0158 6.47666 22.0159 12C22.0159 17.5234 17.5387 22.001 12.0159 22.001C10.4848 22.0009 9.03262 21.6558 7.73364 21.0391L2.05981 21.9629L2.97876 16.2832C2.36252 14.984 2.01685 13.5307 2.01685 12C2.01694 6.47679 6.49329 1.99924 12.0159 1.99902ZM12.0159 3.99902C7.59822 3.99924 4.01694 7.581 4.01685 12C4.01685 13.3244 4.33829 14.5722 4.90552 15.6699L5.05688 15.9629L4.47681 19.543L7.72974 19.0146L8.05591 18.9609L8.34888 19.1133C9.44634 19.6806 10.6921 20.0009 12.0159 20.001C16.4338 20.001 20.0159 16.4192 20.0159 12C20.0158 7.58087 16.4337 3.99902 12.0159 3.99902ZM12.9827 8.63574H16.9983V10.6357H15.0129C15.0028 10.6989 14.9942 10.7653 14.9817 10.833C14.8584 11.4999 14.6086 12.4017 14.0979 13.3135C13.9286 13.6158 13.7293 13.913 13.5032 14.2031C14.3434 14.6744 15.472 14.9967 17.0022 15.001L16.9963 17.001C14.8102 16.9948 13.189 16.4384 11.9983 15.6221C10.8077 16.438 9.18766 16.9948 7.0022 17.001L6.99634 15.001C8.52567 14.9967 9.65334 14.674 10.4934 14.2031C10.2676 13.9133 10.0698 13.6155 9.90063 13.3135C9.38998 12.4017 9.14012 11.4999 9.01685 10.833C9.00434 10.7653 8.99575 10.6989 8.9856 10.6357H6.99927V8.63574H10.9827V6.47363H12.9827V8.63574ZM11.0198 10.6357C11.1241 11.1283 11.3088 11.7371 11.6448 12.3369C11.7465 12.5185 11.8647 12.7011 11.9993 12.8828C12.1338 12.7011 12.252 12.5185 12.3538 12.3369C12.6897 11.7371 12.8745 11.1283 12.9788 10.6357H11.0198Z" fill="currentColor"/>
</svg>
