<svg width="24" height="24" viewBox="0 0 24 24" fill="none" xmlns="http://www.w3.org/2000/svg">
<path d="M19.9988 12.006C19.9987 7.58685 16.4166 4.005 11.9988 4.005C7.58113 4.00522 3.99985 7.58698 3.99976 12.006C3.99976 13.3304 4.3212 14.5782 4.88843 15.6759L5.03979 15.9689L4.45972 19.549L7.71265 19.0206L8.03882 18.9669L8.33179 19.1193C9.42925 19.6866 10.6751 20.0069 11.9988 20.007C16.4167 20.007 19.9988 16.4252 19.9988 12.006ZM21.9988 12.006C21.9988 17.5294 17.5216 22.007 11.9988 22.007C10.4677 22.0069 9.01553 21.6617 7.71655 21.045L2.04272 21.9689L2.96167 16.2892C2.34543 14.9899 1.99976 13.5367 1.99976 12.006C1.99985 6.48278 6.4762 2.00522 11.9988 2.005C17.5215 2.005 21.9987 6.48264 21.9988 12.006Z" fill="currentColor"/>
<path d="M13.4973 9.70374C13.4973 9.13783 12.942 8.48416 12.0012 8.48401C11.0603 8.48401 10.5042 9.13776 10.5042 9.70374H8.50415C8.50415 7.81877 10.1831 6.48401 12.0012 6.48401C13.8192 6.48416 15.4973 7.81888 15.4973 9.70374C15.4972 10.7733 15.0478 11.5893 14.7942 11.9518C14.3896 12.5316 13.8889 12.9274 13.4495 13.1949V13.1959C13.172 13.3647 13.0002 13.6676 12.9993 14.0006L10.9993 13.9967C11.0016 12.9751 11.5302 12.022 12.4094 11.4869C12.6794 11.3226 12.9482 11.1022 13.1545 10.8063L13.1555 10.8043C13.2692 10.6418 13.4972 10.2232 13.4973 9.70374Z" fill="currentColor"/>
<path d="M11.9963 17.5162C12.6474 17.5162 13.1753 16.9882 13.1753 16.337C13.1753 15.6858 12.6474 15.1578 11.9963 15.1578C11.3452 15.1578 10.8174 15.6858 10.8174 16.337C10.8174 16.9882 11.3452 17.5162 11.9963 17.5162Z" fill="currentColor"/>
</svg>
