<svg width="24" height="24" viewBox="0 0 24 24" fill="none" xmlns="http://www.w3.org/2000/svg">
<path d="M19.9988 12.006C19.9987 7.58685 16.4166 4.005 11.9988 4.005C7.58113 4.00522 3.99985 7.58698 3.99976 12.006C3.99976 13.3304 4.3212 14.5782 4.88843 15.6759L5.03979 15.9689L4.45972 19.549L7.71265 19.0206L8.03882 18.9669L8.33179 19.1193C9.42925 19.6866 10.6751 20.0069 11.9988 20.007C16.4167 20.007 19.9988 16.4252 19.9988 12.006ZM21.9988 12.006C21.9988 17.5294 17.5216 22.007 11.9988 22.007C10.4677 22.0069 9.01553 21.6617 7.71655 21.045L2.04272 21.9689L2.96167 16.2892C2.34543 14.9899 1.99976 13.5367 1.99976 12.006C1.99985 6.48278 6.4762 2.00522 11.9988 2.005C17.5215 2.005 21.9987 6.48264 21.9988 12.006Z" fill="currentColor"/>
</svg>
