<svg width="24" height="24" viewBox="0 0 24 24" fill="none" xmlns="http://www.w3.org/2000/svg">
<path d="M19.999 11.9998C19.9989 7.58074 16.4167 3.99878 11.999 3.99878C7.58149 3.99899 4.0001 7.58087 4 11.9998C4 16.4187 7.58143 20.0005 11.999 20.0007C16.4168 20.0007 19.999 16.4189 19.999 11.9998ZM21.999 11.9998C21.999 17.5231 17.5217 22.0007 11.999 22.0007C6.4765 22.0005 2 17.5229 2 11.9998C2.0001 6.47667 6.47656 1.99899 11.999 1.99878C17.5217 1.99878 21.9989 6.47653 21.999 11.9998Z" fill="currentColor"/>
<path d="M17.018 10.04L10.979 16.08L6.98091 12.08L8.39497 10.6659L10.979 13.2499L15.604 8.62589L17.018 10.04Z" fill="currentColor"/>
</svg>
