<svg width="24" height="24" viewBox="0 0 24 24" fill="none" xmlns="http://www.w3.org/2000/svg">
<path d="M16.9458 9.98096C16.9457 7.80366 15.1785 6.0376 13.0005 6.0376C10.9428 6.03765 9.25228 7.61311 9.07373 9.62451L8.97705 10.7241L7.89307 10.519C7.66191 10.4755 7.41962 10.4536 7.16748 10.4536C4.95322 10.4537 3.15869 12.2482 3.15869 14.4634C3.15876 15.9937 4.018 17.3246 5.28271 18.0005H19.5679C20.4132 17.4621 20.9722 16.517 20.9722 15.4429V15.3491C20.9232 13.7197 19.5873 12.4136 17.9458 12.4136C17.8881 12.4136 17.8334 12.415 17.7769 12.4175L16.3647 12.479L16.7769 11.1265C16.8871 10.7651 16.9458 10.3815 16.9458 9.98096ZM18.9458 9.98096C18.9458 10.1585 18.9377 10.3345 18.9224 10.5083C21.2326 10.9628 22.9741 12.9998 22.9741 15.4419V15.856L22.9507 15.8784C22.8016 17.6166 21.7716 19.103 20.3091 19.8833L20.0884 20.0005H4.81982L4.61768 19.9058C2.57653 18.9477 1.15876 16.8718 1.15869 14.4634C1.15869 11.144 3.84828 8.45369 7.16748 8.45361C7.19742 8.45361 7.22746 8.45416 7.25732 8.45459C7.93073 5.91036 10.2462 4.03764 13.0005 4.0376C16.2818 4.0376 18.9457 6.69783 18.9458 9.98096Z" fill="currentColor"/>
</svg>
