<svg width="24" height="24" viewBox="0 0 24 24" fill="none" xmlns="http://www.w3.org/2000/svg">
<path d="M19.001 10.2C19.001 7.32798 16.6728 4.99977 13.8008 4.99976C10.9288 4.99976 8.60059 7.32797 8.60059 10.2C8.6006 13.0719 10.9288 15.4001 13.8008 15.4001C16.6727 15.4001 19.001 13.0719 19.001 10.2ZM21.001 10.2C21.001 14.1765 17.7773 17.4001 13.8008 17.4001C9.82424 17.4001 6.6006 14.1765 6.60059 10.2C6.60059 6.2234 9.82423 2.99976 13.8008 2.99976C17.7773 2.99977 21.001 6.22341 21.001 10.2Z" fill="currentColor"/>
<path d="M3 14.3313C3 13.1247 3.32985 11.9915 3.90527 11.0217L4.41602 10.1624L6.13574 11.1829L5.62598 12.0432C5.22882 12.7126 5 13.4937 5 14.3313C5.0001 16.8122 7.01127 18.8234 9.49219 18.8235C10.3298 18.8235 11.1109 18.5947 11.7803 18.1975L12.6406 17.6877L13.6611 19.4075L12.8008 19.9182C11.8311 20.4935 10.6986 20.8235 9.49219 20.8235C5.9067 20.8234 3.0001 17.9168 3 14.3313Z" fill="currentColor"/>
</svg>
