<svg width="24" height="24" viewBox="0 0 24 24" fill="none" xmlns="http://www.w3.org/2000/svg">
<path d="M13.4944 9.71284C13.4944 9.14693 12.939 8.49326 11.9983 8.49311C11.0573 8.49311 10.5012 9.14687 10.5012 9.71284H8.50121C8.50121 7.82788 10.1801 6.49311 11.9983 6.49311C13.8163 6.49327 15.4944 7.82799 15.4944 9.71284C15.4943 10.7824 15.0449 11.5984 14.7913 11.9609C14.3867 12.5407 13.886 12.9365 13.4465 13.204C13.1691 13.3728 12.9972 13.6767 12.9963 14.0097L10.9963 14.0058C10.9987 12.9842 11.5272 12.0311 12.4065 11.496C12.6765 11.3317 12.9453 11.1113 13.1516 10.8154L13.1526 10.8134C13.2662 10.6509 13.4943 10.2323 13.4944 9.71284Z" fill="currentColor"/>
<path d="M19.999 12.0059C19.9989 7.58684 16.4167 4.00488 11.999 4.00488C7.58149 4.0051 4.0001 7.58698 4 12.0059C4 16.4248 7.58143 20.0066 11.999 20.0068C16.4168 20.0068 19.999 16.425 19.999 12.0059ZM21.999 12.0059C21.999 17.5292 17.5217 22.0068 11.999 22.0068C6.4765 22.0066 2 17.529 2 12.0059C2.0001 6.48277 6.47656 2.0051 11.999 2.00488C17.5217 2.00488 21.9989 6.48264 21.999 12.0059Z" fill="currentColor"/>
<path d="M11.9933 17.5253C12.6444 17.5253 13.1723 16.9973 13.1723 16.3461C13.1723 15.6949 12.6444 15.1669 11.9933 15.1669C11.3422 15.1669 10.8144 15.6949 10.8144 16.3461C10.8144 16.9973 11.3422 17.5253 11.9933 17.5253Z" fill="currentColor"/>
</svg>
