<svg width="24" height="24" viewBox="0 0 24 24" fill="none" xmlns="http://www.w3.org/2000/svg">
<path d="M22.1426 8.19678L20.7285 9.61084L18.1035 6.98584L16.3955 8.69287L18.9971 11.2925L17.583 12.7075L14.9824 10.1069L10.501 14.5903C10.939 15.2799 11.1995 16.0946 11.2158 16.9712C11.263 19.5149 9.24012 21.6189 6.69531 21.6665C4.15144 21.7138 2.04837 19.6891 2.00098 17.144C1.95386 14.6004 3.97668 12.4973 6.52148 12.4497C7.46597 12.4322 8.34955 12.7002 9.08984 13.1743L18.1035 4.15771L22.1426 8.19678ZM6.55957 14.4487C5.12046 14.4755 3.97336 15.6659 4 17.1069C4.02685 18.5468 5.21788 19.6933 6.6582 19.6665C8.09704 19.6394 9.24349 18.4491 9.2168 17.0083C9.18992 15.5687 7.9996 14.4223 6.55957 14.4487Z" fill="currentColor"/>
</svg>
