<svg width="24" height="24" viewBox="0 0 24 24" fill="none" xmlns="http://www.w3.org/2000/svg">
<path d="M11.9602 1.96973C17.4829 1.96973 21.9601 6.44748 21.9602 11.9707C21.9602 17.494 17.4829 21.9717 11.9602 21.9717C6.43768 21.9715 1.96118 17.4939 1.96118 11.9707C1.96128 6.44761 6.43774 1.96994 11.9602 1.96973ZM9.80396 15.9717C9.95975 16.7189 10.1558 17.3918 10.3831 17.9688C10.6768 18.7143 11.0021 19.2504 11.3118 19.583C11.6198 19.9138 11.8399 19.9716 11.9602 19.9717C12.0804 19.9717 12.3003 19.914 12.6086 19.583C12.9184 19.2505 13.2436 18.7144 13.5374 17.9688C13.7646 17.3918 13.9607 16.7189 14.1165 15.9717H9.80396ZM5.03442 15.9717C5.89102 17.4519 7.20663 18.6322 8.78833 19.3164C8.69471 19.1183 8.60584 18.9132 8.52271 18.7021C8.20794 17.9032 7.95334 16.9803 7.76685 15.9717H5.03442ZM16.1545 15.9717C15.9683 16.9803 15.7134 17.9032 15.3987 18.7021C15.3156 18.913 15.2257 19.1174 15.1321 19.3154C16.7139 18.6312 18.0303 17.452 18.887 15.9717H16.1545ZM4.21313 9.9707C4.04865 10.6099 3.9612 11.2801 3.96118 11.9707C3.96118 12.6616 4.04851 13.3322 4.21313 13.9717H7.49927C7.44391 13.3237 7.41431 12.6542 7.41431 11.9707C7.41431 11.2876 7.44396 10.6184 7.49927 9.9707H4.21313ZM9.50806 9.9707C9.4482 10.6088 9.41431 11.2783 9.41431 11.9707C9.41431 12.6635 9.44813 13.3333 9.50806 13.9717H14.4133C14.4732 13.3333 14.5061 12.6635 14.5061 11.9707C14.5061 11.2783 14.4732 10.6087 14.4133 9.9707H9.50806ZM16.4221 9.9707C16.4773 10.6184 16.5061 11.2876 16.5061 11.9707C16.5061 12.6542 16.4774 13.3237 16.4221 13.9717H19.7083C19.8729 13.3322 19.9602 12.6616 19.9602 11.9707C19.9602 11.2801 19.8728 10.6099 19.7083 9.9707H16.4221ZM8.78833 4.62402C7.20624 5.30837 5.89107 6.49 5.03442 7.9707H7.76587C7.95238 6.96168 8.20783 6.03853 8.52271 5.23926C8.60595 5.02797 8.69457 4.8224 8.78833 4.62402ZM11.9602 3.96973C11.8399 3.96985 11.6198 4.02773 11.3118 4.3584C11.002 4.69097 10.6768 5.22704 10.3831 5.97266C10.1557 6.54982 9.95978 7.2231 9.80396 7.9707H14.1165C13.9606 7.2231 13.7647 6.54982 13.5374 5.97266C13.2436 5.22701 12.9184 4.69095 12.6086 4.3584C12.3004 4.02763 12.0804 3.96973 11.9602 3.96973ZM15.1321 4.625C15.2259 4.82325 15.3155 5.02809 15.3987 5.23926C15.7136 6.03855 15.9692 6.96165 16.1555 7.9707H18.887C18.0302 6.48996 16.7143 5.30935 15.1321 4.625Z" fill="currentColor"/>
</svg>
