<svg width="24" height="24" viewBox="0 0 24 24" fill="none" xmlns="http://www.w3.org/2000/svg">
<path fill-rule="evenodd" clip-rule="evenodd" d="M7.74974 6.98209C7.76071 7.39616 7.43394 7.74072 7.01987 7.7517C4.63121 7.815 2.75 9.71089 2.75 11.9977C2.75 14.0026 4.19348 15.7051 6.1615 16.1391C6.47631 16.2085 6.80467 16.2453 7.14286 16.2453C7.55707 16.2453 7.89286 16.5811 7.89286 16.9953C7.89286 17.4095 7.55707 17.7453 7.14286 17.7453C6.69546 17.7453 6.25881 17.6966 5.8385 17.6039C3.22597 17.0278 1.25 14.7496 1.25 11.9977C1.25 8.85712 3.82025 6.33597 6.98013 6.25222C7.3942 6.24125 7.73876 6.56802 7.74974 6.98209Z" fill="currentColor"/>
<path fill-rule="evenodd" clip-rule="evenodd" d="M10.325 7.17249C10.5053 6.79959 10.9538 6.64349 11.3267 6.82382C12.4373 7.3609 13.3583 8.23131 13.9636 9.25177C14.175 9.60803 14.0575 10.0681 13.7012 10.2795C13.345 10.4908 12.8849 10.3733 12.6735 10.017C12.2136 9.24161 11.5104 8.57887 10.6736 8.1742C10.3008 7.99387 10.1446 7.54539 10.325 7.17249Z" fill="currentColor"/>
<path fill-rule="evenodd" clip-rule="evenodd" d="M2.46967 2.46967C2.76256 2.17678 3.23744 2.17678 3.53033 2.46967L21.5303 20.4697C21.8232 20.7626 21.8232 21.2374 21.5303 21.5303C21.2374 21.8232 20.7626 21.8232 20.4697 21.5303L2.46967 3.53033C2.17678 3.23744 2.17678 2.76256 2.46967 2.46967Z" fill="currentColor"/>
<path fill-rule="evenodd" clip-rule="evenodd" d="M15.1429 16.2451L16.8571 16.2451C19.3036 16.2451 21.25 14.3233 21.25 11.9975C21.25 9.99259 19.8065 8.29007 17.8385 7.85611C17.5237 7.7867 17.1953 7.74987 16.8571 7.74987C16.4429 7.74987 16.1071 7.41408 16.1071 6.99987C16.1071 6.58565 16.4429 6.24987 16.8571 6.24987C17.3045 6.24987 17.7412 6.29862 18.1615 6.3913C20.774 6.96737 22.75 9.24557 22.75 11.9975C22.75 15.1919 20.0913 17.7451 16.8571 17.7451L15.1429 17.7451C11.8986 17.7451 9.25 14.8993 9.25 11.9975C9.25 11.5 9.5 10 10 10C11 10 10.75 11.5833 10.75 11.9975C10.75 14.0791 12.7353 16.2451 15.1429 16.2451Z" fill="currentColor"/>
</svg>
