<svg width="24" height="24" viewBox="0 0 24 24" fill="none" xmlns="http://www.w3.org/2000/svg">
<path d="M11.999 2.00513C17.5217 2.00513 21.9989 6.48288 21.999 12.0061C21.999 17.5294 17.5217 22.0071 11.999 22.0071C6.4765 22.0069 2 17.5293 2 12.0061C2.0001 6.48301 6.47656 2.00534 11.999 2.00513ZM7.0918 18.3225C8.44688 19.3773 10.149 20.007 11.999 20.0071C16.4168 20.0071 19.999 16.4252 19.999 12.0061C19.999 10.1559 19.3688 8.45414 18.3145 7.09888L7.0918 18.3225ZM11.999 4.00513C7.58149 4.00534 4.0001 7.58722 4 12.0061C4 13.8534 4.62747 15.5533 5.67871 16.9075L16.9004 5.68481C15.5461 4.63296 13.8462 4.00513 11.999 4.00513Z" fill="currentColor"/>
</svg>
