<svg width="24" height="24" viewBox="0 0 24 24" fill="none" xmlns="http://www.w3.org/2000/svg">
<path fill-rule="evenodd" clip-rule="evenodd" d="M16.9844 8.40015L15.6055 9.78296C16.005 10.4294 16.2363 11.1909 16.2363 12.0066C16.2363 12.8235 16.0032 13.5853 15.6025 14.2322L16.9941 15.6199L15.5811 17.0359L14.1787 15.6375C13.5425 16.0197 12.7983 16.241 12.002 16.241C11.1898 16.241 10.4316 16.0114 9.78711 15.615L8.3584 17.0486L6.94238 15.6365L8.37695 14.1951C7.99053 13.5563 7.76765 12.8076 7.76758 12.0066C7.76758 11.2139 7.98531 10.4721 8.36426 9.83765L7.00781 8.48511L8.41992 7.06909L9.76562 8.40991C10.4146 8.00533 11.1809 7.77124 12.002 7.77124C12.8001 7.77125 13.5464 7.9927 14.1836 8.37671L15.5674 6.98804L16.9844 8.40015ZM12.002 9.77124C10.7681 9.77124 9.76758 10.7721 9.76758 12.0066C9.76778 13.241 10.7683 14.241 12.002 14.241C13.2356 14.2409 14.2361 13.2409 14.2363 12.0066C14.2363 10.7721 13.2358 9.77127 12.002 9.77124Z" fill="currentColor"/>
<path fill-rule="evenodd" clip-rule="evenodd" d="M21 21.0027H3.00391V3.00366H21V21.0027ZM5.00391 19.0027H19V5.00366H5.00391V19.0027Z" fill="currentColor"/>
</svg>
