<svg width="24" height="24" viewBox="0 0 24 24" fill="none" xmlns="http://www.w3.org/2000/svg">
<path d="M16.0146 9.96777C16.0146 7.22364 13.79 4.99902 11.0469 4.99902C8.30393 4.99925 6.08008 7.22378 6.08008 9.96777C6.08029 12.7116 8.30406 14.9353 11.0469 14.9355C13.7899 14.9355 16.0144 12.7117 16.0146 9.96777ZM18.0146 9.96777C18.0146 11.5269 17.5018 12.966 16.6367 14.127L20.7139 18.3018L19.2832 19.7002L15.2246 15.5439C14.0606 16.4176 12.6142 16.9355 11.0469 16.9355C7.19913 16.9353 4.08029 13.8158 4.08008 9.96777C4.08008 6.11957 7.199 2.99925 11.0469 2.99902C14.8949 2.99902 18.0146 6.11944 18.0146 9.96777Z" fill="currentColor"/>
</svg>
