<svg width="24" height="24" viewBox="0 0 24 24" fill="none" xmlns="http://www.w3.org/2000/svg">
<path d="M12 1.99902C14.609 1.99907 17.0252 2.37741 19.3613 3.28516L19.999 3.53223V12.0078C19.999 15.4243 18.0024 17.9257 16.1504 19.5127C15.2153 20.3139 14.284 20.9114 13.5889 21.3086C13.2403 21.5077 12.9483 21.6588 12.7402 21.7607C12.6363 21.8116 12.553 21.85 12.4941 21.877C12.4647 21.8904 12.4407 21.9007 12.4238 21.9082C12.4156 21.9118 12.4094 21.9158 12.4043 21.918C12.4018 21.919 12.3992 21.9192 12.3975 21.9199L12.3955 21.9209L12.3945 21.9219L12 21.0029L12.3936 21.9219L12 22.0908L11.6055 21.9219L12 21.0029L11.6045 21.9219L11.6035 21.9209L11.6016 21.9199C11.6 21.9193 11.5979 21.9189 11.5957 21.918C11.5906 21.9157 11.5836 21.9119 11.5752 21.9082C11.5583 21.9007 11.5343 21.8904 11.5049 21.877C11.446 21.85 11.3627 21.8116 11.2588 21.7607C11.0508 21.6588 10.7587 21.5077 10.4102 21.3086C9.71501 20.9114 8.78369 20.3139 7.84863 19.5127C5.99665 17.9257 4 15.4242 4 12.0078V3.53223L4.63867 3.28418C6.9741 2.37839 9.39045 1.99902 12 1.99902ZM12 3.99902C9.83823 3.99902 7.87332 4.28111 6 4.91797V12.0078C6 14.5858 7.50268 16.5823 9.15039 17.9941C9.96521 18.6923 10.7851 19.2196 11.4023 19.5723C11.6353 19.7054 11.8386 19.8112 11.999 19.8926C12.1596 19.8111 12.3633 19.7056 12.5967 19.5723C13.2139 19.2196 14.0338 18.6923 14.8486 17.9941C16.4963 16.5823 17.999 14.5858 17.999 12.0078V4.91699C16.1264 4.27952 14.1621 3.99906 12 3.99902ZM11.999 13.8213C12.65 13.8213 13.1775 14.349 13.1777 15C13.1777 15.6512 12.6501 16.1797 11.999 16.1797C11.348 16.1796 10.8203 15.6512 10.8203 15C10.8206 14.349 11.3482 13.8214 11.999 13.8213ZM13 12.5596H11V6H13V12.5596Z" fill="currentColor"/>
</svg>
