<svg width="24" height="24" viewBox="0 0 24 24" fill="none" xmlns="http://www.w3.org/2000/svg">
<path d="M13 3C13 6.06757 13.6584 7.99527 14.8477 9.17676C16.0382 10.3594 17.9675 11 21 11V13C17.974 13 16.0426 13.6566 14.8496 14.8496C13.6566 16.0426 13 17.974 13 21H11C11 17.9757 10.3391 16.0442 9.14355 14.8506C7.94763 13.6566 6.01563 13 3 13V11C6.0223 11 7.95302 10.3595 9.14648 9.17578C10.338 7.99365 11 6.06559 11 3H13ZM11.9971 8.50781C11.6295 9.30061 11.1558 9.99937 10.5547 10.5957C9.96108 11.1845 9.26903 11.6482 8.48828 12.0078C9.27047 12.3724 9.96273 12.8417 10.5566 13.4346C11.1563 14.0332 11.6298 14.733 11.9971 15.5244C12.3631 14.733 12.8368 14.0343 13.4355 13.4355C14.0288 12.8423 14.7205 12.3725 15.5029 12.0078C14.7221 11.6482 14.0304 11.1847 13.4375 10.5957C12.8371 9.99921 12.3635 9.30065 11.9971 8.50781Z" fill="currentColor"/>
</svg>
