<svg width="24" height="24" viewBox="0 0 24 24" fill="none" xmlns="http://www.w3.org/2000/svg">
<path d="M16 8L16.0059 8.43164C16.0647 10.5367 16.5612 11.8419 17.3711 12.6465C18.1823 13.4524 19.4895 13.9368 21.5732 13.9941L22 14V16C19.6725 16 18.2407 16.5054 17.373 17.373C16.5054 18.2407 16 19.6725 16 22H14L13.9941 21.5742C13.935 19.4974 13.4364 18.188 12.6211 17.374C11.751 16.5056 10.319 16 8 16V14L8.42578 13.9941C10.5025 13.9367 11.8107 13.4522 12.624 12.6455C13.4897 11.7866 14 10.3586 14 8H16ZM14.9971 12.7764C14.7339 13.2527 14.4163 13.6844 14.0322 14.0654C13.6545 14.4401 13.2288 14.751 12.7607 15.0078C13.2298 15.2679 13.6561 15.5815 14.0342 15.959C14.4171 16.3413 14.7353 16.773 14.998 17.249C15.26 16.7732 15.5767 16.3412 15.959 15.959C16.3366 15.5814 16.7625 15.267 17.2314 15.0068C16.764 14.7501 16.3389 14.4399 15.9619 14.0654C15.5782 13.6842 15.2596 13.2529 14.9971 12.7764Z" fill="currentColor"/>
<path d="M7.5 2C7.5 3.47681 7.81921 4.27922 8.27637 4.7334C8.73486 5.18888 9.53901 5.5 11 5.5V7.5C9.54564 7.5 8.73927 7.81737 8.27832 8.27832C7.81737 8.73927 7.5 9.54564 7.5 11H5.5C5.5 9.54755 5.18094 8.7409 4.71875 8.2793C4.25611 7.81741 3.44875 7.5 2 7.5V5.5C3.45512 5.5 4.26047 5.18968 4.7207 4.7334C5.17922 4.27861 5.5 3.47515 5.5 2H7.5ZM6.49805 5.72852C6.38584 5.87742 6.26343 6.01989 6.12891 6.15332C5.9995 6.28164 5.86222 6.39837 5.71875 6.50586C5.86331 6.6149 6.00161 6.73328 6.13184 6.86328C6.26536 6.99659 6.38651 7.13868 6.49805 7.28711C6.60931 7.13875 6.73098 6.99753 6.86426 6.86426C6.99435 6.73417 7.13189 6.61496 7.27637 6.50586C7.13288 6.39823 6.99558 6.28086 6.86621 6.15234C6.73202 6.01901 6.60992 5.87728 6.49805 5.72852Z" fill="currentColor"/>
</svg>
