<svg width="24" height="24" viewBox="0 0 24 24" fill="none" xmlns="http://www.w3.org/2000/svg">
<path d="M9.37305 3.75482C10.505 1.68103 13.4789 1.66896 14.6279 3.73334L21.7744 16.5732C22.8869 18.5726 21.4415 21.032 19.1533 21.0322H4.99805C2.7206 21.0321 1.27423 18.5938 2.36523 16.5947L9.37305 3.75482ZM12.8809 4.70599C12.4979 4.01787 11.5062 4.02157 11.1289 4.71283L4.12012 17.5527C3.75658 18.219 4.23897 19.0321 4.99805 19.0322H19.1533C19.9157 19.032 20.3976 18.2122 20.0273 17.5458L12.8809 4.70599ZM11.999 14.6464C12.6501 14.6464 13.1777 15.1739 13.1777 15.8251C13.1777 16.4764 12.6501 17.0048 11.999 17.0048C11.3479 17.0048 10.8203 16.4764 10.8203 15.8251C10.8203 15.1739 11.3479 14.6464 11.999 14.6464ZM13 13.496H11V8.26361H13V13.496Z" fill="currentColor"/>
</svg>
