<svg width="24" height="24" viewBox="0 0 24 24" fill="none" xmlns="http://www.w3.org/2000/svg">
<path d="M19.9988 12C19.9987 7.58098 16.4165 3.99902 11.9988 3.99902C7.58125 3.99924 3.99985 7.58112 3.99976 12C3.99976 16.419 7.58119 20.0008 11.9988 20.001C16.4166 20.001 19.9988 16.4191 19.9988 12ZM21.9988 12C21.9988 17.5233 17.5215 22.001 11.9988 22.001C6.47625 22.0008 1.99976 17.5232 1.99976 12C1.99985 6.47691 6.47631 1.99924 11.9988 1.99902C17.5214 1.99902 21.9987 6.47678 21.9988 12Z" fill="currentColor"/>
<path d="M11.9992 13.1809C12.6503 13.1809 13.1781 12.653 13.1781 12.0017C13.1781 11.3505 12.6503 10.8226 11.9992 10.8226C11.3481 10.8226 10.8202 11.3505 10.8202 12.0017C10.8202 12.653 11.3481 13.1809 11.9992 13.1809Z" fill="currentColor"/>
<path d="M7.54112 13.1793C8.19223 13.1793 8.72006 12.6514 8.72006 12.0002C8.72006 11.3489 8.19223 10.821 7.54112 10.821C6.89002 10.821 6.36219 11.3489 6.36219 12.0002C6.36219 12.6514 6.89002 13.1793 7.54112 13.1793Z" fill="currentColor"/>
<path d="M16.5575 13.1793C17.2086 13.1793 17.7365 12.6514 17.7365 12.0002C17.7365 11.3489 17.2086 10.821 16.5575 10.821C15.9064 10.821 15.3786 11.3489 15.3786 12.0002C15.3786 12.6514 15.9064 13.1793 16.5575 13.1793Z" fill="currentColor"/>
</svg>
