<svg width="24" height="24" viewBox="0 0 24 24" fill="none" xmlns="http://www.w3.org/2000/svg">
<path d="M21.999 8.80371V19.001H5.9707V17.001H19.999V8.80371H21.999Z" fill="currentColor"/>
<path d="M18.999 16.0001H2V2.93567H18.999V16.0001ZM4.92773 11.9327H6.92773V6.93176H4.92773V11.9327ZM14.0146 11.9327H16.0146V6.93176H14.0146V11.9327ZM10.5059 7.40735C9.36723 7.40742 8.44452 8.33052 8.44434 9.46887C8.4446 10.6072 9.36728 11.5313 10.5059 11.5314C11.6445 11.5314 12.5671 10.6072 12.5674 9.46887C12.5672 8.33047 11.6446 7.40735 10.5059 7.40735ZM10.5059 9.40735C10.5396 9.40735 10.5672 9.43468 10.5674 9.46887C10.5671 9.503 10.5396 9.53137 10.5059 9.53137C10.4722 9.5313 10.4446 9.50295 10.4443 9.46887C10.4445 9.43473 10.4722 9.40742 10.5059 9.40735Z" fill="currentColor"/>
</svg>
