<svg width="24" height="24" viewBox="0 0 24 24" fill="none" xmlns="http://www.w3.org/2000/svg">
<path d="M13.0332 6.39404L15.3145 4.30908L16.6641 5.78467L13.0332 9.10498V11.0005H14.9521L18.2891 7.26709L19.7803 8.59912L17.6328 11.0005H22.0322V13.0005H17.5986L19.708 15.3091L18.2314 16.6577L14.8896 13.0005H13.0332V14.9272L16.6953 18.2935L15.3428 19.7661L13.0332 17.6431V22.0015H11.0332V17.6079L8.74805 19.7319L7.38672 18.2661L11.0332 14.8794V13.0005H9.06738L5.7627 16.6538L4.28027 15.312L6.37012 13.0005H2.0332V11.0005H6.35938L4.27539 8.66357L5.76758 7.33154L9.04004 11.0005H11.0332V9.04541L7.36523 5.72314L8.70703 4.24072L11.0332 6.34619V1.99854H13.0332V6.39404Z" fill="currentColor"/>
</svg>
