<svg width="24" height="24" viewBox="0 0 24 24" fill="none" xmlns="http://www.w3.org/2000/svg">
<path d="M11.9992 13.1854C12.6504 13.1854 13.1782 12.6574 13.1782 12.0062C13.1782 11.355 12.6504 10.827 11.9992 10.827C11.3481 10.827 10.8203 11.355 10.8203 12.0062C10.8203 12.6574 11.3481 13.1854 11.9992 13.1854Z" fill="currentColor"/>
<path d="M5.67421 18.3481C4.02308 16.7259 3 14.4679 3 11.9722C3 9.50432 3.99994 7.26947 5.61712 5.65198M8.49651 15.5035C7.72341 14.5158 7.26202 13.2702 7.26202 11.9182C7.26202 10.5723 7.71878 9.33453 8.48416 8.34829M18.4141 18.3542C20.0652 16.7321 21.0883 14.4741 21.0883 11.9784C21.0883 9.48271 20.0884 7.27563 18.4712 5.65814M15.5794 15.4619C16.334 14.4803 16.7815 13.2517 16.7815 11.9182C16.7815 10.5847 16.3046 9.28052 15.5084 8.28348" stroke="currentColor" stroke-width="2" stroke-miterlimit="10"/>
</svg>
