<svg width="24" height="24" viewBox="0 0 24 24" fill="none" xmlns="http://www.w3.org/2000/svg">
<path d="M21.9722 15.4434C21.9722 16.9837 21.1081 18.3234 19.8381 19.0009H5.04277C3.33917 18.2015 2.15869 16.4697 2.15869 14.4633C2.15869 11.696 4.40083 9.45341 7.16763 9.45341C7.47934 9.45341 7.78333 9.48119 8.07806 9.53676C8.30182 7.01328 10.4205 5.03772 13.0006 5.03772C15.7304 5.03772 17.9463 7.25097 17.9463 9.98126C17.9463 10.4813 17.8722 10.9629 17.7333 11.4182C17.8043 11.4151 17.8737 11.4135 17.9463 11.4135C20.1714 11.4135 21.9738 13.2178 21.9738 15.4418L21.9722 15.4434Z" stroke="currentColor" stroke-width="2" stroke-miterlimit="10"/>
</svg>
