<svg width="24" height="24" viewBox="0 0 24 24" fill="none" xmlns="http://www.w3.org/2000/svg">
<path d="M18.0007 12.0001C18.0007 13.6577 19.3432 15.0005 21.0005 15.0005V19.001H3.03711V14.9989C4.67589 14.9804 6.00142 13.6453 6.00142 12.0001C6.00142 10.3548 4.67589 9.01975 3.03711 9.00123V4.94824H21.0005V8.99969C19.3432 8.99969 18.0007 10.3425 18.0007 12.0001Z" stroke="currentColor" stroke-width="2" stroke-miterlimit="10"/>
<path d="M8.99902 15.0003L14.9986 8.99951" stroke="currentColor" stroke-width="1.5" stroke-miterlimit="10"/>
<path d="M9.39573 10.7868C10.0468 10.7868 10.5747 10.2589 10.5747 9.60763C10.5747 8.9564 10.0468 8.42847 9.39573 8.42847C8.74462 8.42847 8.2168 8.9564 8.2168 9.60763C8.2168 10.2589 8.74462 10.7868 9.39573 10.7868Z" fill="currentColor"/>
<path d="M14.4836 15.6363C15.1347 15.6363 15.6626 15.1084 15.6626 14.4571C15.6626 13.8059 15.1347 13.278 14.4836 13.278C13.8325 13.278 13.3047 13.8059 13.3047 14.4571C13.3047 15.1084 13.8325 15.6363 14.4836 15.6363Z" fill="currentColor"/>
</svg>
