<svg width="24" height="24" viewBox="0 0 24 24" fill="none" xmlns="http://www.w3.org/2000/svg">
<path d="M11.1161 12.7656C11.0836 13.0283 11.0388 13.3868 10.824 13.7917C10.7189 13.991 10.5876 14.1734 10.4315 14.3372C9.87365 14.8966 9.17052 15.201 8.44731 15.201C6.46929 15.201 5.56836 13.6001 5.56836 12.1119C5.56836 9.99018 7.09824 9.02435 8.51994 9.02435C9.00672 9.02435 9.42241 9.16189 9.76393 9.35505C10.396 9.71357 10.8395 10.3332 11.0218 11.0364L11.0265 11.0549L9.68048 11.0426L9.56922 10.854C9.5414 10.8061 9.2787 10.3966 8.51994 10.3966C7.50311 10.3966 7.04879 11.2589 7.04879 12.1119C7.04879 12.9047 7.41657 13.8288 8.45349 13.8288C8.76874 13.8288 9.44714 13.7407 9.64648 13.0082L8.05325 13.0221V11.6684H11.113L11.1362 12.0285C11.1532 12.2757 11.147 12.5245 11.1161 12.7656Z" fill="currentColor"/>
<path d="M13.3457 9.07861H11.8652V15.0096H13.3457V9.07861Z" fill="currentColor"/>
<path d="M15.8052 10.4771V11.344H18.0722V12.7101H15.8052V15.0358H14.3232V9.1048H18.2824V10.4771H15.8052Z" fill="currentColor"/>
<path d="M21 5.03595H3V18.964H21V5.03595Z" stroke="currentColor" stroke-width="2.00604" stroke-miterlimit="10"/>
</svg>
