<svg width="24" height="24" viewBox="0 0 24 24" fill="none" xmlns="http://www.w3.org/2000/svg">
<path d="M7.81545 15.4784L2.78491 15.5077C2.78491 13.6005 4.38358 12.0527 6.35721 12.0527L10.3647 11.9925M17.608 10.9448C17.608 12.2674 16.5358 13.3397 15.2131 13.3397C13.8905 13.3397 12.8182 12.2674 12.8182 10.9448C12.8182 9.62209 13.8905 8.54985 15.2131 8.54985C16.5358 8.54985 17.608 9.62209 17.608 10.9448ZM11.1053 6.93885C11.1053 8.26152 10.0331 9.33376 8.71044 9.33376C7.38777 9.33376 6.31553 8.26152 6.31553 6.93885C6.31553 5.61618 7.38777 4.54395 8.71044 4.54395C10.0331 4.54395 11.1053 5.61618 11.1053 6.93885ZM9.44033 19.4998C9.44033 17.5925 11.039 16.0448 13.0126 16.0448H17.2979C19.2699 16.0448 20.8702 17.591 20.8702 19.4998H9.44033Z" stroke="currentColor" stroke-width="2" stroke-miterlimit="10"/>
</svg>
