<svg width="24" height="24" viewBox="0 0 24 24" fill="none" xmlns="http://www.w3.org/2000/svg">
<path d="M16.0224 3.99896H7.98277C5.78315 3.99896 4 5.78245 4 7.9825V16.0237C4 18.2237 5.78315 20.0072 7.98277 20.0072H16.0224C18.222 20.0072 20.0051 18.2237 20.0051 16.0237V7.9825C20.0051 5.78245 18.222 3.99896 16.0224 3.99896Z" stroke="currentColor" stroke-width="2" stroke-miterlimit="10"/>
<path d="M11.9743 15.7057C14.0291 15.7057 15.6948 14.0397 15.6948 11.9846C15.6948 9.92945 14.0291 8.26343 11.9743 8.26343C9.9196 8.26343 8.25391 9.92945 8.25391 11.9846C8.25391 14.0397 9.9196 15.7057 11.9743 15.7057Z" stroke="currentColor" stroke-width="2" stroke-miterlimit="10"/>
<path d="M16.7379 8.12143C17.1913 8.12143 17.5589 7.75382 17.5589 7.30034C17.5589 6.84686 17.1913 6.47925 16.7379 6.47925C16.2845 6.47925 15.917 6.84686 15.917 7.30034C15.917 7.75382 16.2845 8.12143 16.7379 8.12143Z" fill="currentColor"/>
</svg>
