<svg width="24" height="24" viewBox="0 0 24 24" fill="none" xmlns="http://www.w3.org/2000/svg">
<path d="M11.9606 20.9719C16.9308 20.9719 20.96 16.9419 20.96 11.9707C20.96 6.9995 16.9308 2.96954 11.9606 2.96954C6.99036 2.96954 2.96118 6.9995 2.96118 11.9707C2.96118 16.9419 6.99036 20.9719 11.9606 20.9719Z" stroke="currentColor" stroke-width="2" stroke-miterlimit="10"/>
<path d="M11.9606 20.9719C13.9191 20.9719 15.5067 16.9419 15.5067 11.9707C15.5067 6.9995 13.9191 2.96954 11.9606 2.96954C10.0022 2.96954 8.41455 6.9995 8.41455 11.9707C8.41455 16.9419 10.0022 20.9719 11.9606 20.9719Z" stroke="currentColor" stroke-width="2" stroke-miterlimit="10"/>
<path d="M20.96 14.9711H2.96118" stroke="currentColor" stroke-width="2" stroke-miterlimit="10"/>
<path d="M20.96 8.97034H2.96118" stroke="currentColor" stroke-width="2" stroke-miterlimit="10"/>
</svg>
