<svg width="24" height="24" viewBox="0 0 24 24" fill="none" xmlns="http://www.w3.org/2000/svg">
<path d="M7.14286 16.9953C6.75006 16.9953 6.36756 16.9525 6 16.8715C3.70973 16.3665 2 14.3761 2 11.9977C2 9.284 4.22573 7.07548 7 7.00195" stroke="currentColor" stroke-width="1.5" stroke-linecap="round" stroke-linejoin="round"/>
<path d="M13.3184 9.63441C12.7858 8.73647 11.9737 7.9699 11 7.49902" stroke="currentColor" stroke-width="1.5" stroke-linecap="round" stroke-linejoin="round"/>
<path d="M16.8571 6.99987C17.2499 6.99987 17.6324 7.04266 18 7.12371C20.2903 7.62872 22 9.61908 22 11.9975C22 14.7576 19.6975 16.9951 16.8571 16.9951C16.581 16.9951 15.4776 16.9951 15.1429 16.9951C12.317 16.9951 10 14.4892 10 11.9975C10 11.9975 10 10.9999 10.5 10.4999" stroke="currentColor" stroke-width="1.5" stroke-linecap="round" stroke-linejoin="round"/>
<path d="M3 3L21 21" stroke="currentColor" stroke-width="1.5" stroke-linecap="round" stroke-linejoin="round"/>
</svg>
