<svg width="24" height="24" viewBox="0 0 24 24" fill="none" xmlns="http://www.w3.org/2000/svg">
<path d="M11.7634 10.75C13.6963 10.75 15.2632 9.18314 15.2632 7.25026C15.2632 5.31739 13.6963 3.75049 11.7634 3.75049C9.83057 3.75049 8.26367 5.31739 8.26367 7.25026C8.26367 9.18314 9.83057 10.75 11.7634 10.75Z" stroke="currentColor" stroke-width="2" stroke-miterlimit="10"/>
<path d="M12.7805 19.7448L3.76562 19.7494C3.76562 16.9888 6.00468 14.7498 8.7653 14.7498L13.765 14.7559" stroke="currentColor" stroke-width="2" stroke-miterlimit="10"/>
<path d="M18.2713 16.9857C18.9719 17.6538 18.9981 18.7633 18.3299 19.4639C17.6618 20.1645 16.5523 20.1907 15.8517 19.5225C15.1511 18.8544 15.1249 17.7449 15.793 17.0443C16.4612 16.3437 17.5707 16.3175 18.2713 16.9857Z" stroke="currentColor" stroke-width="2" stroke-miterlimit="10"/>
<path d="M17.0625 16.8223L17.0748 10.8103H19.7944" stroke="currentColor" stroke-width="2" stroke-miterlimit="10"/>
<path d="M19.7585 13.6897H17.0547" stroke="currentColor" stroke-width="2" stroke-miterlimit="10"/>
</svg>
