<svg width="24" height="24" viewBox="0 0 24 24" fill="none" xmlns="http://www.w3.org/2000/svg">
<path d="M11.8979 15.1057C13.5969 15.1057 14.9743 13.7599 14.9743 12.0997C14.9743 10.4396 13.5969 9.09375 11.8979 9.09375C10.1989 9.09375 8.82161 10.4396 8.82161 12.0997C8.82161 13.7599 10.1989 15.1057 11.8979 15.1057Z" stroke="currentColor" stroke-width="2" stroke-miterlimit="10"/>
<path d="M19.1634 11.9948C19.1634 11.4362 19.097 10.893 18.9707 10.373L21 9.22798L18.9533 5.7637L16.9209 6.91023C16.117 6.16645 15.1363 5.60322 14.0467 5.28534V2.99536H9.95333V5.28534C8.86366 5.60322 7.88296 6.16645 7.07914 6.91023L5.04667 5.7637L3 9.22798L5.0293 10.373C4.90297 10.893 4.83664 11.4362 4.83664 11.9948C4.83664 12.5534 4.90297 13.0966 5.03088 13.6181L3 14.7631L5.04667 18.2274L7.07914 17.0809C7.88296 17.8247 8.86366 18.3879 9.95333 18.7042V20.9942H14.0467V18.7042C15.1363 18.3879 16.117 17.8247 16.9209 17.0809L18.9533 18.2274L21 14.7631L18.9691 13.6181C19.097 13.0966 19.1634 12.5534 19.1634 11.9948Z" stroke="currentColor" stroke-width="2" stroke-miterlimit="10"/>
</svg>
