<svg width="24" height="24" viewBox="0 0 24 24" fill="none" xmlns="http://www.w3.org/2000/svg">
<path d="M11.9995 2.99884C14.5086 2.99884 16.7986 3.36154 18.9991 4.21659C18.9991 4.21659 18.9991 7.65685 18.9991 12.0077C18.9991 18.0023 11.9995 21.0027 11.9995 21.0027C11.9995 21.0027 5 18.0023 5 12.0077C5 7.65685 5 4.21659 5 4.21659C7.20048 3.36308 9.49045 2.99884 11.9995 2.99884Z" stroke="currentColor" stroke-width="2" stroke-miterlimit="10"/>
<path d="M12 12.5588V5.99927" stroke="currentColor" stroke-width="2" stroke-miterlimit="10"/>
<path d="M11.9992 16.1796C12.6504 16.1796 13.1782 15.6516 13.1782 15.0004C13.1782 14.3492 12.6504 13.8212 11.9992 13.8212C11.3481 13.8212 10.8203 14.3492 10.8203 15.0004C10.8203 15.6516 11.3481 16.1796 11.9992 16.1796Z" fill="currentColor"/>
</svg>
