<svg width="24" height="24" viewBox="0 0 24 24" fill="none" xmlns="http://www.w3.org/2000/svg">
<path d="M5.08887 17.8405C5.73998 17.8405 6.26758 18.368 6.26758 19.0192C6.26756 19.6704 5.73996 20.1979 5.08887 20.1979C4.43786 20.1978 3.91017 19.6704 3.91016 19.0192C3.91016 18.3681 4.43785 17.8406 5.08887 17.8405ZM20.0879 20.0192H8.08887V18.0192H20.0879V20.0192ZM5.08887 10.8132C5.73982 10.8132 6.26733 11.3409 6.26758 11.9919C6.26758 12.6431 5.73998 13.1716 5.08887 13.1716C4.43785 13.1715 3.91016 12.6431 3.91016 11.9919C3.9104 11.3409 4.438 10.8133 5.08887 10.8132ZM20.0879 13.0065H8.08887V11.0065H20.0879V13.0065ZM5.08887 3.81219C5.73982 3.81219 6.26733 4.33988 6.26758 4.99091C6.26758 5.64214 5.73998 6.17059 5.08887 6.17059C4.43786 6.17047 3.91016 5.64206 3.91016 4.99091C3.9104 4.33995 4.43801 3.81232 5.08887 3.81219ZM20.0879 5.99188H8.08887V3.99188H20.0879V5.99188Z" fill="currentColor"/>
</svg>
