<svg width="24" height="24" viewBox="0 0 24 24" fill="none" xmlns="http://www.w3.org/2000/svg">
<path d="M12.79 8.26457L16.0055 11.3244M6.98778 20.2498L4.08203 17.4396L16.5401 4.56091L19.4458 7.37114L6.98778 20.2498Z" stroke="currentColor" stroke-width="2.00604" stroke-miterlimit="10"/>
<path d="M11.786 5.50533C12.4088 5.50533 12.9138 5.0004 12.9138 4.37754C12.9138 3.75468 12.4088 3.24976 11.786 3.24976C11.1631 3.24976 10.6582 3.75468 10.6582 4.37754C10.6582 5.0004 11.1631 5.50533 11.786 5.50533Z" fill="currentColor"/>
<path d="M6.62472 7.34203L6.59232 7.45159L6.55837 7.34203L6.44727 7.30808L6.55837 7.27413L6.59232 7.16302L6.62472 7.27413L6.73583 7.30808L6.62472 7.34203Z" stroke="currentColor" stroke-width="2.00604" stroke-miterlimit="10"/>
<path d="M17.7655 15.962L17.7594 15.9852L17.7517 15.962L17.7285 15.9543L17.7517 15.9482L17.7594 15.9235L17.7655 15.9482L17.7902 15.9543L17.7655 15.962Z" stroke="currentColor" stroke-width="2.00604" stroke-miterlimit="10"/>
</svg>
