<svg width="24" height="24" viewBox="0 0 24 24" fill="none" xmlns="http://www.w3.org/2000/svg">
<path d="M12.7637 12.3826V18.4305L14.374 16.8201L15.7881 18.2342L11.7646 22.2576L7.74121 18.2322L8.44922 17.5262L9.15625 16.8192L10.7637 18.4266V12.3826H12.7637ZM19.7646 12.9197C19.7646 11.4516 18.5736 10.2607 17.1055 10.2606C17.0554 10.2606 17.008 10.2612 16.959 10.2635L15.5342 10.3318L15.9561 8.96857C16.0532 8.65476 16.1055 8.31613 16.1055 7.95978C16.1054 6.03194 14.542 4.46954 12.6133 4.46954C10.7916 4.46957 9.29549 5.86432 9.1377 7.64337L9.04004 8.74298L7.95508 8.5379C7.75297 8.49957 7.54025 8.48031 7.31543 8.48029C5.3548 8.48029 3.76471 10.0695 3.76465 12.0301C3.76465 13.3762 4.51611 14.549 5.62598 15.1512H6.83789V17.1512H5.16211L4.96094 17.0565C3.07529 16.1717 1.76465 14.2546 1.76465 12.0301C1.76471 8.9649 4.25023 6.48029 7.31543 6.48029C7.31869 6.48029 7.32194 6.48028 7.3252 6.48029C7.97054 4.16535 10.094 2.46956 12.6133 2.46954C15.6457 2.46954 18.1054 4.92648 18.1055 7.95978C18.1055 8.0957 18.0996 8.23092 18.0898 8.36505C20.1899 8.8171 21.7646 10.6848 21.7646 12.9197C21.7646 14.7017 20.7635 16.2513 19.2959 17.034L19.0762 17.1512H16.9346V15.1512H18.5518C19.2828 14.6761 19.7646 13.8537 19.7646 12.9197Z" fill="currentColor"/>
</svg>
