<svg width="24" height="24" viewBox="0 0 24 24" fill="none" xmlns="http://www.w3.org/2000/svg">
<path d="M16.6172 4.99902H20.999V21.001H3V4.99902H7.38184L8.38184 2.99902H15.6172L16.6172 4.99902ZM12 8C9.51481 8 7.50024 10.0149 7.5 12.5C7.50013 14.9852 9.51474 17.001 12 17.001C14.4852 17.0009 16.4999 14.9852 16.5 12.5C16.4998 10.0149 14.4851 8.00012 12 8ZM12 10C13.3802 10.0001 14.4998 11.1191 14.5 12.5C14.4999 13.881 13.3802 15.0009 12 15.001C10.6197 15.001 9.50013 13.881 9.5 12.5C9.50024 11.1191 10.6197 10 12 10Z" fill="currentColor"/>
</svg>
