<svg width="24" height="24" viewBox="0 0 24 24" fill="none" xmlns="http://www.w3.org/2000/svg">
<path d="M17.209 3.00775L22.3867 12.0644L17.1172 20.999L6.77344 21.0107L1.60645 11.9931L6.83105 3.00775H17.209ZM3.91504 12.0009L7.93164 19.0087L15.9736 18.9999L20.0732 12.0488L16.0488 5.00775H7.98242L3.91504 12.0009Z" fill="currentColor"/>
<path d="M14.4764 11.9196C14.4764 10.5862 13.395 9.50553 12.0623 9.50553C10.7297 9.50568 9.64922 10.5863 9.64922 11.9196C9.64924 13.2529 10.7298 14.3335 12.0623 14.3337C13.395 14.3337 14.4763 13.253 14.4764 11.9196ZM16.4764 11.9196C16.4763 14.3572 14.4999 16.3337 12.0623 16.3337C9.62483 16.3335 7.64924 14.3571 7.64922 11.9196C7.64922 9.48207 9.62482 7.50568 12.0623 7.50553C14.4999 7.50553 16.4764 9.48198 16.4764 11.9196Z" fill="currentColor"/>
</svg>
