<svg width="24" height="24" viewBox="0 0 24 24" fill="none" xmlns="http://www.w3.org/2000/svg">
<path d="M5.00076 18.9969H7.99506V20.9976H3V15.9977H5.00076V18.9969Z" fill="currentColor"/>
<path d="M20.999 20.9976H15.9971V18.9969H18.9983V15.9977H20.999V20.9976Z" fill="currentColor"/>
<path d="M16.6058 15.3646C15.8749 17.2132 14.0726 18.524 11.9595 18.524C9.93271 18.524 8.19059 17.3159 7.40792 15.5874L9.23088 14.7619C9.7017 15.8017 10.7475 16.5233 11.9595 16.5233C13.2237 16.5233 14.3053 15.7408 14.7447 14.63L16.6058 15.3646Z" fill="currentColor"/>
<path d="M12.9979 13.9979H9.9968V11.9971H10.9972V7.93309H12.9979V13.9979Z" fill="currentColor"/>
<path d="M8.99642 10.9977H6.99566V6.99816H8.99642V10.9977Z" fill="currentColor"/>
<path d="M16.9975 10.9977H14.9967V6.99816H16.9975V10.9977Z" fill="currentColor"/>
<path d="M21 7.99756H18.9992V5.00326H15.9815V3.0025H21V7.99756Z" fill="currentColor"/>
<path d="M7.90421 5.00326H5.00076V7.93309H3V3.0025H7.90421V5.00326Z" fill="currentColor"/>
</svg>
