<svg width="24" height="24" viewBox="0 0 24 24" fill="none" xmlns="http://www.w3.org/2000/svg">
<path d="M11.9992 13.1792C12.6504 13.1792 13.1782 12.6513 13.1782 12C13.1782 11.3488 12.6504 10.8209 11.9992 10.8209C11.3481 10.8209 10.8203 11.3488 10.8203 12C10.8203 12.6513 11.3481 13.1792 11.9992 13.1792Z" fill="currentColor"/>
<path d="M5.17869 13.1791C5.8298 13.1791 6.35763 12.6512 6.35763 12C6.35763 11.3487 5.8298 10.8208 5.17869 10.8208C4.52758 10.8208 3.99976 11.3487 3.99976 12C3.99976 12.6512 4.52758 13.1791 5.17869 13.1791Z" fill="currentColor"/>
<path d="M18.8198 13.1854C19.4709 13.1854 19.9987 12.6574 19.9987 12.0062C19.9987 11.355 19.4709 10.827 18.8198 10.827C18.1687 10.827 17.6409 11.355 17.6409 12.0062C17.6409 12.6574 18.1687 13.1854 18.8198 13.1854Z" fill="currentColor"/>
</svg>
