<svg width="24" height="24" viewBox="0 0 24 24" fill="none" xmlns="http://www.w3.org/2000/svg">
<path d="M11.8936 2.00635C16.2774 2.00648 19.83 5.5596 19.8301 9.94385C19.8301 10.675 19.7457 11.3175 19.5596 12.0034L19.4736 12.3003C18.9157 14.1115 17.3918 17.7565 12.6982 21.479L12.1016 21.9526L11.4863 21.5024C9.01587 19.6956 5.86339 16.7691 4.45312 12.7271L4.32227 12.3325C4.06938 11.528 3.95703 10.792 3.95703 9.94385C3.9571 5.55952 7.50958 2.00635 11.8936 2.00635ZM11.8936 4.00635C8.61452 4.00635 5.9571 6.66372 5.95703 9.94385C5.95703 10.5896 6.03902 11.1228 6.23047 11.7319L6.34277 12.0708C7.45134 15.2451 9.85579 17.7104 12.0518 19.4214C15.9024 16.1725 17.1239 13.1351 17.5625 11.7114C17.751 11.0989 17.8301 10.5775 17.8301 9.94385C17.83 6.6638 15.1725 4.00648 11.8936 4.00635ZM11.998 6.14014C14.0817 6.14039 15.7705 7.82989 15.7705 9.91357C15.7702 11.9971 14.0816 13.6868 11.998 13.687C9.91427 13.687 8.22487 11.9972 8.22461 9.91357C8.22465 7.82974 9.91413 6.14014 11.998 6.14014ZM11.998 8.14014C11.0191 8.14014 10.2246 8.93394 10.2246 9.91357C10.2249 10.893 11.0192 11.687 11.998 11.687C12.9767 11.6868 13.7702 10.8929 13.7705 9.91357C13.7705 8.9341 12.9768 8.14039 11.998 8.14014Z" fill="currentColor"/>
</svg>
