<svg width="24" height="24" viewBox="0 0 24 24" fill="none" xmlns="http://www.w3.org/2000/svg">
<path fill-rule="evenodd" clip-rule="evenodd" d="M16.3125 2.49811C18.6279 2.49811 20.502 4.37823 20.502 6.69342C20.5018 8.48443 19.3797 10.0133 17.7998 10.6143V13.713L19.5254 15.3526V19.5186L13.4902 19.4942C13.0559 20.1027 12.3455 20.5001 11.542 20.5001C10.7314 20.4999 10.0146 20.0963 9.58105 19.4786L3.49805 19.4551V15.336L3.82129 15.0391L5.2666 13.7061L5.27734 8.60651C5.27872 4.83701 8.57289 2.53995 11.5439 2.53815C12.4286 2.53815 13.3188 2.73883 14.1396 3.10651C14.7732 2.72097 15.5175 2.49815 16.3125 2.49811ZM11.5439 4.54205C9.43133 4.54371 7.2815 6.17696 7.28125 8.60846V8.61041L7.26953 14.586L5.50195 16.2139V17.459L17.5215 17.5059V16.213L15.7959 14.5753V10.8546C13.725 10.5994 12.1233 8.83335 12.123 6.69342C12.123 5.96716 12.3084 5.28337 12.6328 4.68756C12.2713 4.59121 11.9035 4.54205 11.5439 4.54205ZM16.3125 4.50201C15.7674 4.50207 15.2709 4.70137 14.8877 5.03229C14.421 5.43534 14.1279 6.02944 14.1279 6.69342C14.1282 7.90475 15.1076 8.88374 16.3125 8.88385C17.5175 8.88385 18.4978 7.90482 18.498 6.69342C18.498 5.48182 17.5177 4.50201 16.3125 4.50201Z" fill="currentColor"/>
</svg>
