<svg width="24" height="24" viewBox="0 0 24 24" fill="none" xmlns="http://www.w3.org/2000/svg">
<path d="M7.99961 8.45477H2" stroke="currentColor" stroke-width="2" stroke-miterlimit="10"/>
<path d="M5.97575 11.98L2.02539 12.0201" stroke="currentColor" stroke-width="2" stroke-miterlimit="10"/>
<path d="M13.4857 17.0933H9.88867" stroke="currentColor" stroke-width="2" stroke-miterlimit="10"/>
<path d="M3.88854 17.0933H1.88867" stroke="currentColor" stroke-width="2" stroke-miterlimit="10"/>
<path d="M9.88842 17.0948C9.88842 18.1983 8.99187 19.0935 7.88854 19.0935C6.78522 19.0935 5.88867 18.1983 5.88867 17.0948C5.88867 15.9913 6.78368 15.0945 7.88854 15.0945C8.99341 15.0945 9.88842 15.9897 9.88842 17.0948Z" stroke="currentColor" stroke-width="2" stroke-miterlimit="10"/>
<path d="M17.8869 17.0933C17.8869 18.0919 17.1539 18.9191 16.1956 19.0673C16.1941 19.0688 16.1925 19.0688 16.191 19.0688C16.1092 19.0812 16.0243 19.0889 15.9395 19.0904C15.9225 19.092 15.904 19.092 15.887 19.092C14.7837 19.092 13.8887 18.1968 13.8887 17.0933C13.8887 15.9897 14.7837 15.093 15.887 15.093C16.9903 15.093 17.8869 15.9882 17.8869 17.0933Z" stroke="currentColor" stroke-width="2" stroke-miterlimit="10"/>
<path d="M2.99805 17.0933L5.88829 17.0948" stroke="currentColor" stroke-width="2" stroke-miterlimit="10"/>
<path d="M2.04102 5.02832L15.8873 5.03758V15.0404" stroke="currentColor" stroke-width="2" stroke-miterlimit="10"/>
<path d="M15.8887 15.5253V15.7738V8.22803H18.8885L20.9701 11.8874L20.9979 17.0409L17.8885 17.0934" stroke="currentColor" stroke-width="2" stroke-miterlimit="10"/>
</svg>
