<svg width="24" height="24" viewBox="0 0 24 24" fill="none" xmlns="http://www.w3.org/2000/svg">
<path d="M3.72852 7.38428C3.73121 7.39286 3.73639 7.40775 3.74316 7.42822C3.7569 7.46974 3.77927 7.53474 3.81055 7.61963C3.87331 7.78998 3.97236 8.03977 4.1123 8.34229C4.39343 8.94995 4.83413 9.75678 5.46973 10.5591C6.73309 12.1538 8.7319 13.6978 11.8193 13.6978C14.9037 13.6977 16.8709 12.1556 18.1035 10.5649C18.7243 9.76381 19.1503 8.95742 19.4209 8.3501C19.5556 8.04769 19.6501 7.79762 19.71 7.62744C19.7398 7.54253 19.7614 7.47742 19.7744 7.43604C19.7808 7.41557 19.7856 7.40051 19.7881 7.39209L19.79 7.38428V7.38525C19.7899 7.38563 19.7895 7.38655 20.7549 7.65771C21.7205 7.92896 21.7208 7.92969 21.7207 7.93018V7.93115C21.7205 7.93194 21.72 7.93308 21.7197 7.93408C21.7192 7.93599 21.7185 7.93827 21.7178 7.94092C21.7161 7.94666 21.7136 7.95429 21.7109 7.96338C21.7055 7.98154 21.6982 8.00672 21.6885 8.0376C21.6691 8.09928 21.6402 8.18524 21.6025 8.29248C21.527 8.50745 21.4133 8.80865 21.2539 9.1665C20.9362 9.87964 20.4328 10.8341 19.6895 11.7935C18.1935 13.7241 15.6924 15.7035 11.8193 15.7036C7.94891 15.7036 5.42037 13.7287 3.89648 11.8052C3.13856 10.8484 2.62023 9.89573 2.29102 9.18408C2.12595 8.82724 2.00671 8.52735 1.92773 8.31299C1.88827 8.20588 1.85922 8.11964 1.83887 8.05811C1.82868 8.02731 1.82013 8.00198 1.81445 7.98389C1.81171 7.97514 1.80933 7.96799 1.80762 7.9624C1.80674 7.95955 1.80627 7.95659 1.80566 7.95459L1.80469 7.95264V7.95068L3.72656 7.37646C3.72697 7.37779 3.7274 7.38072 3.72852 7.38428Z" fill="currentColor"/>
</svg>
