<svg width="24" height="24" viewBox="0 0 24 24" fill="none" xmlns="http://www.w3.org/2000/svg">
<path d="M11.999 1.99731C17.5226 1.99732 22 6.47609 22 12.0002C21.9999 17.5243 17.5225 22.0032 11.999 22.0032C6.47554 22.0032 1.99817 17.5243 1.99805 12.0002C1.99805 6.47609 6.47546 1.99731 11.999 1.99731ZM11.999 14.8215C11.3481 14.8217 10.8204 15.3492 10.8203 16.0002C10.8203 16.6514 11.348 17.1798 11.999 17.1799C12.6501 17.1799 13.1777 16.6515 13.1777 16.0002C13.1776 15.3491 12.6501 14.8215 11.999 14.8215ZM10.998 13.5588H12.998V6.99927H10.998V13.5588Z" fill="currentColor"/>
</svg>
