<svg width="24" height="24" viewBox="0 0 24 24" fill="none" xmlns="http://www.w3.org/2000/svg">
<path d="M3.28613 2.78809L21.4658 20.7881L20.0586 22.21L17.3135 19.4922H13.7939C13.3611 20.1247 12.6347 20.54 11.8105 20.54C10.9863 20.54 10.2595 20.1248 9.82617 19.4922H3.76562V15.3545L5.51758 13.7344L5.52832 8.62305C5.52841 8.3644 5.54517 8.11264 5.5752 7.86816L1.87988 4.20996L3.28613 2.78809ZM11.8125 2.54688C14.7988 2.54716 18.0957 4.86553 18.0957 8.63965L18.0869 13.7334L19.8574 15.3516V17.084L7.17676 4.5293C8.41015 3.25566 10.1614 2.54789 11.8125 2.54688Z" fill="currentColor"/>
</svg>
