<svg width="24" height="24" viewBox="0 0 24 24" fill="none" xmlns="http://www.w3.org/2000/svg">
<path d="M12.0159 1.99902C17.5386 1.99902 22.0158 6.47666 22.0159 12C22.0159 17.5234 17.5387 22.001 12.0159 22.001C10.4848 22.0009 9.03262 21.6558 7.73364 21.0391L2.05981 21.9629L2.97876 16.2832C2.36252 14.984 2.01685 13.5307 2.01685 12C2.01694 6.47679 6.49329 1.99924 12.0159 1.99902ZM10.9827 8.63574H6.99927V10.6357H8.9856C8.99575 10.6989 9.00434 10.7653 9.01685 10.833C9.14012 11.4999 9.38998 12.4017 9.90063 13.3135C10.0698 13.6155 10.2676 13.9133 10.4934 14.2031C9.65334 14.674 8.52567 14.9967 6.99634 15.001L7.0022 17.001C9.18766 16.9948 10.8077 16.438 11.9983 15.6221C13.189 16.4384 14.8102 16.9948 16.9963 17.001L17.0022 15.001C15.472 14.9967 14.3434 14.6744 13.5032 14.2031C13.7293 13.913 13.9286 13.6158 14.0979 13.3135C14.6086 12.4017 14.8584 11.4999 14.9817 10.833C14.9942 10.7653 15.0028 10.6989 15.0129 10.6357H16.9983V8.63574H12.9827V6.47266H10.9827V8.63574ZM12.9788 10.6357C12.8745 11.1283 12.6897 11.7371 12.3538 12.3369C12.252 12.5185 12.1338 12.7011 11.9993 12.8828C11.8647 12.7011 11.7465 12.5185 11.6448 12.3369C11.3088 11.7371 11.1241 11.1283 11.0198 10.6357H12.9788Z" fill="currentColor"/>
</svg>
