<svg width="24" height="24" viewBox="0 0 24 24" fill="none" xmlns="http://www.w3.org/2000/svg">
<path fill-rule="evenodd" clip-rule="evenodd" d="M11.8472 2.55402C14.8316 2.55402 18.1274 4.87067 18.1274 8.64288L18.1177 13.7288L19.8862 15.346V19.4857H13.8257C13.3931 20.116 12.6673 20.5296 11.8452 20.5296C11.0234 20.5294 10.2987 20.1157 9.86572 19.4857H3.78369V15.345L5.55615 13.7259L5.56689 8.62628C5.56823 4.85309 8.87161 2.55602 11.8472 2.55402ZM11.8472 4.55792C9.72647 4.55953 7.57197 6.19599 7.57178 8.62823V8.63019L7.56006 14.6126L5.7876 16.2298V17.4818H17.8823V16.2288L16.439 14.9095L16.1128 14.6107L16.1226 8.64288L16.1167 8.41632C15.9883 6.10297 13.9 4.55792 11.8472 4.55792Z" fill="currentColor"/>
</svg>
