<svg width="24" height="24" viewBox="0 0 24 24" fill="none" xmlns="http://www.w3.org/2000/svg">
<path d="M12.999 21.001H10.999L10.9932 11H12.9932L12.999 21.001ZM20.9404 20.9307H15.0117V15.001H20.9404V20.9307ZM9 20.918H3.01855V14.9355H9V20.918ZM8.9541 11.0059L8.95215 13.0059L2.99902 13L3.00098 11L8.9541 11.0059ZM20.999 11.0059L20.998 13.0059L12.998 13L13 11L20.999 11.0059ZM9 9.00488H3V3.00391H9V9.00488ZM21.1689 9H15.1738V3.00391H21.1689V9ZM12.999 8.95996H10.999V2.99902H12.999V8.95996Z" fill="currentColor"/>
</svg>
