<svg width="24" height="24" viewBox="0 0 24 24" fill="none" xmlns="http://www.w3.org/2000/svg">
<path d="M21.1885 4.229L4.27734 21.1421L2.86328 19.728L19.7744 2.81494L21.1885 4.229Z" fill="currentColor"/>
<path d="M9.99929 6.50351C9.99929 8.43645 8.4323 10.0044 6.49929 10.0045C4.5662 10.0045 2.99929 8.4365 2.99929 6.50351C2.99946 4.57067 4.5663 3.00351 6.49929 3.00351C8.43219 3.0036 9.99911 4.57072 9.99929 6.50351Z" fill="currentColor"/>
<path d="M20.9985 17.4894C20.9985 19.4284 19.4267 21.0011 17.4877 21.0012C15.5487 21.0012 13.977 19.4284 13.977 17.4894C13.9772 15.5506 15.5488 13.9787 17.4877 13.9787C19.4266 13.9787 20.9982 15.5507 20.9985 17.4894Z" fill="currentColor"/>
</svg>
