<svg width="24" height="24" viewBox="0 0 24 24" fill="none" xmlns="http://www.w3.org/2000/svg">
<path d="M11.999 1.99878C17.5218 1.99878 21.9989 6.47642 21.999 11.9998C21.999 17.5232 17.5218 22.0007 11.999 22.0007C10.468 22.0007 9.01578 21.6555 7.7168 21.0388L2.04297 21.9626L2.96191 16.283C2.34568 14.9837 2 13.5304 2 11.9998C2.0001 6.47655 6.47644 1.99899 11.999 1.99878ZM11.999 14.7322C11.3481 14.7323 10.8204 15.2598 10.8203 15.9109C10.8203 16.562 11.3481 17.0904 11.999 17.0906C12.6501 17.0906 13.1787 16.5621 13.1787 15.9109C13.1787 15.2597 12.6501 14.7322 11.999 14.7322ZM10.999 13.4695H12.999V6.90991H10.999V13.4695Z" fill="currentColor"/>
</svg>
