<svg width="24" height="24" viewBox="0 0 24 24" fill="none" xmlns="http://www.w3.org/2000/svg">
<path d="M21.999 5.00073V19.0027H2V5.00073H21.999ZM4 17.0027H19.999V7.00073H4V17.0027Z" fill="currentColor"/>
<path d="M13.0049 12.0065C13.0049 11.4505 12.5545 10.9997 11.999 10.9997C11.4437 10.9998 10.9932 11.4506 10.9932 12.0065C10.9934 12.5623 11.4438 13.0123 11.999 13.0124C12.5543 13.0124 13.0047 12.5624 13.0049 12.0065ZM15.0049 12.0065C15.0047 13.6666 13.6593 15.0124 11.999 15.0124C10.3389 15.0123 8.99338 13.6665 8.99316 12.0065C8.99316 10.3464 10.3387 8.99979 11.999 8.99969C13.6594 8.99969 15.0049 10.3463 15.0049 12.0065Z" fill="currentColor"/>
</svg>
